<?xml version="1.0" standalone="no"?> <!DOCTYPE svg PUBLIC "-//W3C//DTD SVG 1.0//EN" "http://www.w3.org/TR/2001/REC-SVG-20010904/DTD/svg10.dtd" > <svg xmlns="http://www.w3.org/2000/svg" width="100%" height="100%">
<defs >
<font id="futuraltcondensedmediumoblique" horiz-adv-x="307" ><font-face
    font-family="Futura LT Condensed"
    units-per-em="1000"
    panose-1="2 0 6 6 5 0 0 2 0 3"
    ascent="969"
    descent="-216"
    alphabetic="0" />
<missing-glyph horiz-adv-x="205" />
<glyph unicode=" " glyph-name="space" horiz-adv-x="205" />
<glyph unicode="!" glyph-name="exclam" horiz-adv-x="252" d="M124 -8Q102 -8 88 6T73 42Q73 48 74 52Q78 77 98 94T143 112Q166 112 180 98T195 61Q195 59 195 57T194 52Q189 27 169 10T124 -8ZM294 754L205 181H105L194 754H294Z" />
<glyph unicode="&quot;" glyph-name="quotedbl" horiz-adv-x="250" d="M265 754H351L304 528H242L265 754ZM134 754H220L173 528H111L134 754Z" />
<glyph unicode="#" glyph-name="numbersign" horiz-adv-x="411" d="M278 317L335 441H247L191 317H278ZM108 258H1L27 317H135L192 441H83L110 500H219L337 754H392L275 500H363L479 754H535L418 500H529L502 441H390L333 317H445L421 258H306L187 0H132L251 258H164L43
0H-12L108 258Z" />
<glyph unicode="$" glyph-name="dollar" horiz-adv-x="411" d="M355 819L344 754Q399 750 433 723T473 643L389 597Q388 629 367 649T312 670Q266 670 244 642T215 572Q214 565 214 559T213 547Q213 523 221 506T242 474T273 448T311 421Q338 403 358 387T391
353T412 314T419 263Q419 252 418 239T415 211Q409 171 396 135T361 71T306 24T227 0L216 -67H171L182 0Q123 5 93 32T52 114L142 154Q146 121 163 103T216 84Q240 84 257 93T287 118T306 154T316 197Q319 215 319 229Q319 251 313 265T295 292T269 314T235 338Q206
358 184 376T146 414T122 458T114 516Q114 527 115 540T118 567Q124 603 138 635T174 693T228 734T299 754L310 819H355Z" />
<glyph unicode="%" glyph-name="percent" horiz-adv-x="553" d="M221 465Q238 465 248 480T265 515T275 554T280 584Q282 593 284 611T287 650Q287 671 281 687T258 703Q241 703 231 688T214 653T204 613T200 584Q198 574 195 555T192 516Q192 496 198 481T221
465ZM448 289Q431 289 421 274T404 240T394 200T389 171Q387 161 384 142T381 102Q381 82 387 67T410 51Q427 51 437 66T454 101T464 141T469 171Q471 180 474 199T477 239Q477 259 471 274T448 289ZM611 754L120 0H58L549 754H611ZM457 349Q483 349 499 340T526
317T539 283T543 242Q543 224 541 206T536 170Q532 143 524 112T501 54T462 9T401 -9Q375 -9 359 0T333 24T320 58T316 99Q316 117 318 135T322 170Q326 197 334 228T357 287T396 331T457 349ZM268 763Q294 763 310 754T336 731T349 697T353 656Q353 638 351 620T347
584Q343 557 335 526T312 468T273 423T212 405Q186 405 170 414T144 438T131 472T127 513Q127 531 129 549T133 584Q137 611 144 642T167 701T206 745T268 763Z" />
<glyph unicode="&amp;" glyph-name="ampersand" horiz-adv-x="494" d="M272 441Q287 454 302 467T330 496T352 528T364 565Q365 569 365 577Q365 598 354 611T318 625Q292 625 273 604T249 559Q248 554 248 549T247 539Q247 513 255 489T272 441ZM225 302Q195
275 175 248T149 182Q148 177 148 172T147 162Q147 127 165 102T217 76Q243 76 264 90T302 128L225 302ZM333 59Q304 26 267 8T192 -10Q159 -10 133 2T89 36T60 86T50 147Q50 155 50 162Q50 170 52 178Q62 239 101 289T189 380Q174 410 164 446T154 520Q154 539
157 557Q162 588 176 614T213 660T263 690T323 701Q380 701 414 673T448 591Q448 585 448 579T446 565Q441 534 427 507T394 455T351 408T303 366L376 202L452 290L508 238L410 126L471 0H360L333 59Z" />
<glyph unicode="&apos;" glyph-name="quotesingle" horiz-adv-x="250" d="M199 754H285L238 528H176L199 754Z" />
<glyph unicode="(" glyph-name="parenleft" horiz-adv-x="276" d="M338 741Q287 646 246 542T188 338Q182 300 180 262T177 186Q177 115 185 46T209 -89L112 -113Q79 17 79 160Q79 203 82 246T92 332Q109 443 149 552T249 764L338 741Z" />
<glyph unicode=")" glyph-name="parenright" horiz-adv-x="276" d="M286 332Q269 219 229 106T128 -113L39 -89Q94 12 134 121T192 338Q197 370 199 402T202 467Q202 538 193 607T168 741L265 764Q282 701 290 636T299 503Q299 460 296 418T286 332Z" />
<glyph unicode="*" glyph-name="asterisk" horiz-adv-x="357" d="M313 754L293 621L415 691L430 657L304 591L410 527L384 493L283 560L267 431H224L249 563L129 493L111 527L234 591L130 651L155 687L258 621L274 754H313Z" />
<glyph unicode="+" glyph-name="plus" horiz-adv-x="500" d="M294 507H364L330 291H502L491 221H319L285 2H215L249 221H78L89 291H260L294 507Z" />
<glyph unicode="," glyph-name="comma" horiz-adv-x="205" d="M169 81L31 -184L-17 -170L92 106L169 81Z" />
<glyph unicode="-" glyph-name="hyphen" horiz-adv-x="242" d="M256 297L244 221H66L78 297H256Z" />
<glyph unicode="." glyph-name="period" horiz-adv-x="205" d="M101 -8Q79 -8 65 6T50 42Q50 49 51 53Q55 77 75 94T120 112Q143 112 157 98T172 62Q172 60 172 58T171 53Q166 27 146 10T101 -8Z" />
<glyph unicode="/" glyph-name="slash" horiz-adv-x="407" d="M566 830L35 -103H-45L487 830H566Z" />
<glyph unicode="0" glyph-name="zero" horiz-adv-x="411" d="M337 377Q346 434 353 484T360 576Q360 621 349 647T311 673Q285 673 267 649T234 584T210 490T191 377Q182 321 176 270T169 179Q169 134 180 108T218 81Q244 81 262 105T294 170T318 264T337 377ZM325
763Q364 763 389 747T430 705T450 645T456 573Q456 519 449 467T435 377Q431 347 425 307T407 224T380 140T340 65T283 12T204 -9Q165 -9 140 7T99 49T78 109T72 182Q72 236 80 288T93 377Q98 407 104 447T121 530T148 614T189 689T246 742T325 763Z" />
<glyph unicode="1" glyph-name="one" horiz-adv-x="411" d="M372 754L255 0H157L261 667H187L200 754H372Z" />
<glyph unicode="2" glyph-name="two" horiz-adv-x="411" d="M130 536Q137 581 148 622T180 694T237 744T327 763Q405 763 438 729T471 631Q471 618 470 605T466 577Q459 535 439 486T391 388T334 293T278 209L195 87H382L369 0H37L280 387Q308 433 332 482T365
583Q366 589 366 595T367 607Q367 633 356 653T312 673Q286 673 271 655T248 613T237 565T231 529L228 509H126L130 536Z" />
<glyph unicode="3" glyph-name="three" horiz-adv-x="411" d="M207 347L221 437H233Q265 437 286 443T320 463T341 498T354 552Q356 563 358 578T360 609Q360 634 351 653T315 673Q295 673 282 664T261 639T248 607T240 575L237 552H141L142 559Q149 602 159 639T190
703T242 747T326 763Q363 763 388 753T429 726T451 684T458 631Q458 616 456 601T452 568Q448 542 442 514T423 462T392 418T341 390L340 388Q383 377 397 347T412 279Q412 247 406 214Q399 169 385 129T347 58T286 9T198 -9Q126 -9 94 23T62 117Q62 128 63 140T66
166L70 189H166L162 165Q161 160 161 154T160 143Q160 117 171 99T212 81Q239 81 255 96T282 132T297 178T305 222Q307 234 308 246T309 269Q309 301 295 324T241 347H236H207Z" />
<glyph unicode="4" glyph-name="four" horiz-adv-x="411" d="M326 601H324L151 281H275L326 601ZM373 281H421L410 207H362L330 0H232L264 207H61L74 293L349 754H447L373 281Z" />
<glyph unicode="5" glyph-name="five" horiz-adv-x="411" d="M478 754L465 667H302L248 477H259Q341 477 378 434T416 318Q416 305 415 292T412 265Q404 213 386 164T336 77T261 15T157 -9Q124 -9 98 -1T45 22L85 111Q105 99 123 90T168 81Q201 81 225 98T267
140T293 194T307 249Q310 270 310 289Q310 338 285 367T200 397Q185 397 169 395T137 388L238 754H478Z" />
<glyph unicode="6" glyph-name="six" horiz-adv-x="411" d="M301 226Q303 241 306 261T309 303Q309 331 300 352T265 374H262Q256 374 246 371T224 354T201 311T180 227Q178 214 176 196T173 158Q173 143 175 130T182 105T196 88T219 81Q240 81 254 97T278 137T293
185T301 226ZM421 754L224 432L226 430Q245 445 264 454T308 464Q339 464 359 453T391 422T407 379T412 327Q412 301 410 276T403 227Q396 183 385 141T352 66T295 12T204 -9Q164 -9 139 3T98 37T78 86T72 145Q72 170 74 195T81 246Q93 323 114 386T166 509T233
628T313 754H421Z" />
<glyph unicode="7" glyph-name="seven" horiz-adv-x="411" d="M492 754L146 0H38L352 667H142L155 754H492Z" />
<glyph unicode="8" glyph-name="eight" horiz-adv-x="411" d="M276 453Q294 453 307 466T329 497T342 535T349 568Q351 577 352 588T353 610Q353 633 345 653T311 673Q292 673 279 662T258 634T245 600T238 568Q235 551 235 524Q235 511 236 499T242 476T255 460T276
453ZM217 81Q239 81 253 94T277 127T291 169T299 207Q301 221 304 241T307 281Q307 310 298 332T260 355Q236 355 221 338T197 298T184 249T177 207Q175 195 174 180T172 150Q172 123 181 102T217 81ZM196 410Q159 422 147 452T134 519Q134 534 135 549T139 578Q145
617 157 651T190 709T242 748T318 763Q395 763 426 732T457 639Q457 625 456 610T452 578Q448 554 441 528T422 478T390 437T343 409V408Q383 397 396 366T410 295Q410 278 408 261T404 226Q397 183 385 141T351 66T293 12T204 -9Q165 -9 139 2T98 34T76 81T69
138Q69 156 71 174T76 212Q80 240 86 271T106 329T140 378T195 408L196 410Z" />
<glyph unicode="9" glyph-name="nine" horiz-adv-x="411" d="M263 377Q287 377 302 394T327 436T340 485T348 527Q350 540 352 558T355 597Q355 626 346 649T310 673Q287 673 273 656T249 614T235 563T227 521Q225 507 222 487T219 447Q219 419 228 398T263 377ZM102
0L301 315L299 317Q280 301 262 294T218 287Q187 287 167 298T136 327T120 370T115 420Q115 442 117 464T123 506Q130 550 140 595T173 678T231 739T324 763Q364 763 390 751T431 719T451 672T457 614Q457 588 454 561T447 507Q437 445 421 393T383 291T332 194T269
90L211 0H102Z" />
<glyph unicode=":" glyph-name="colon" horiz-adv-x="205" d="M164 392Q141 392 127 406T112 444Q112 446 112 448T113 453Q117 477 137 494T183 512Q206 512 220 498T234 462Q234 460 234 458T233 453Q229 427 209 410T164 392ZM101 -8Q79 -8 65 6T50 42Q50 49
51 53Q55 77 75 94T120 112Q143 112 157 98T172 62Q172 60 172 58T171 53Q166 27 146 10T101 -8Z" />
<glyph unicode=";" glyph-name="semicolon" horiz-adv-x="205" d="M164 392Q141 392 127 406T112 444Q112 446 112 448T113 453Q117 477 137 494T183 512Q206 512 220 498T234 462Q234 460 234 458T233 453Q229 427 209 410T164 392ZM170 81L33 -184L-16 -170L93
106L170 81Z" />
<glyph unicode="&lt;" glyph-name="less" horiz-adv-x="500" d="M88 286L538 518L526 445L161 254L466 63L455 -10L78 222L88 286Z" />
<glyph unicode="=" glyph-name="equal" horiz-adv-x="500" d="M476 124H63L74 194H487L476 124ZM506 314H93L104 384H517L506 314Z" />
<glyph unicode="&gt;" glyph-name="greater" horiz-adv-x="500" d="M491 222L42 -10L53 63L418 254L113 445L125 518L501 286L491 222Z" />
<glyph unicode="?" glyph-name="question" horiz-adv-x="341" d="M164 -8Q142 -8 128 6T113 42Q113 48 114 52Q118 77 138 94T183 112Q206 112 220 98T235 61Q235 59 235 57T234 52Q229 27 209 10T164 -8ZM150 178L186 405L209 404Q236 404 252 414T279 442T293
482T302 527Q304 541 308 566T313 616Q313 641 306 659T277 678Q259 678 249 669T232 645T224 614T219 586L216 568H122L124 580Q130 617 139 650T165 709T211 749T286 764Q323 764 347 755T385 728T404 688T410 637Q410 614 407 589T400 538Q395 510 388 476T367
411T328 359T265 338H263L238 178H150Z" />
<glyph unicode="@" glyph-name="at" horiz-adv-x="800" d="M367 211Q405 211 440 241T503 313T549 400T573 474Q574 477 574 480Q574 484 574 487Q574 512 559 527T515 543Q475 543 440 519T376 458T330 381T306 304Q305 298 305 293T304 282Q304 253 319 232T367
211ZM651 588H720L568 279Q563 268 556 253T547 227V222Q547 211 554 204T572 197Q594 197 625 213T687 262T742 340T776 445Q779 467 779 488Q779 539 759 579T705 646T624 688T525 702Q454 702 391 676T278 606T194 501T150 373Q146 350 146 322Q146 263 166
214T224 128T312 72T426 52Q465 52 505 60T582 84T653 125T714 181H777Q745 137 704 102T615 41T517 3T416 -10Q342 -10 280 14T174 82T106 185T81 313Q81 346 87 381Q99 460 141 530T244 652T381 734T538 764Q601 764 657 744T754 688T819 602T843 490Q843 464
839 441Q832 395 806 343T741 247T653 173T550 144Q524 144 500 156T470 197Q443 173 408 160T341 146Q283 146 252 182T221 271Q221 278 221 284Q221 291 223 299Q231 350 258 404T325 504T417 579T525 608Q561 608 589 591T629 540L651 588Z" />
<glyph unicode="A" glyph-name="A" horiz-adv-x="414" d="M297 334L302 608H300L180 225H300L297 334ZM364 754L409 0H308L302 147H152L102 0H4L285 754H364Z" />
<glyph unicode="B" glyph-name="B" horiz-adv-x="418" d="M348 556Q351 574 351 590Q351 623 336 646T279 669H277H260L222 422H231Q263 422 283 432T317 460T336 502T348 556ZM169 85H179Q237 85 262 117T297 209Q299 223 300 236T302 260Q302 298 284 320T214
342H209L169 85ZM61 0L178 754H303Q385 754 418 718T452 618Q452 588 446 552Q441 524 434 498T412 449T377 410T325 385L324 383Q372 367 390 336T408 260Q408 247 407 234T403 206Q395 154 379 115T336 51T271 13T181 0H61Z" />
<glyph unicode="C" glyph-name="C" horiz-adv-x="369" d="M454 651Q440 659 425 664T393 670Q358 670 332 655T286 614T253 556T230 491T215 427T206 372Q201 346 198 314T194 248Q194 216 199 187T216 135T250 98T306 84Q323 84 337 87T368 99L354 11Q334 -1
314 -5T271 -10Q216 -10 180 9T123 61T94 136T86 225Q86 260 90 296T99 365Q105 403 114 447T138 535T174 621T225 694T294 745T385 764Q411 764 430 760T469 742L454 651Z" />
<glyph unicode="D" glyph-name="D" horiz-adv-x="466" d="M375 364Q381 399 387 440T394 523Q394 553 389 579T371 626T335 657T277 669H265L174 85H182Q221 85 249 97T297 129T330 177T351 236T364 299T375 364ZM290 754Q327 754 363 750T429 724T477 657T496
529Q496 461 481 364Q467 277 449 216T406 115T353 52T289 17T215 3T130 0H61L178 754H290Z" />
<glyph unicode="E" glyph-name="E" horiz-adv-x="347" d="M447 754L434 667H265L228 430H379L365 343H214L174 87H343L330 0H61L178 754H447Z" />
<glyph unicode="F" glyph-name="F" horiz-adv-x="342" d="M449 754L436 667H265L228 430H382L368 343H214L161 0H61L178 754H449Z" />
<glyph unicode="G" glyph-name="G" horiz-adv-x="460" d="M484 398L482 386Q476 350 470 307T454 219T428 134T387 61T326 10T240 -10Q194 -10 164 4T115 45T90 107T82 189Q82 231 87 277T100 375Q112 454 128 524T173 648T244 733T352 764Q392 764 420 754T468
725T497 676T512 610L411 571Q410 590 408 607T398 639T377 661T340 670Q309 670 289 650T253 591T228 499T206 376Q197 318 193 275T189 200Q189 162 194 139T207 104T226 88T249 84Q264 84 280 87T311 109T339 164T364 270L370 311H286L300 398H484Z" />
<glyph unicode="H" glyph-name="H" horiz-adv-x="473" d="M278 754L232 460H383L429 754H529L412 0H312L370 373H219L161 0H61L178 754H278Z" />
<glyph unicode="I" glyph-name="I" horiz-adv-x="222" d="M161 0H61L178 754H278L161 0Z" />
<glyph unicode="J" glyph-name="J" horiz-adv-x="303" d="M271 187Q265 147 255 111T225 48T173 6T92 -10Q71 -10 49 -6T9 10L25 112Q39 103 54 95T87 86Q112 86 127 95T152 120T165 154T172 192L259 754H359L271 187Z" />
<glyph unicode="K" glyph-name="K" horiz-adv-x="424" d="M280 754L224 392L421 754H524L319 389L419 0H304L222 382L163 0H61L178 754H280Z" />
<glyph unicode="L" glyph-name="L" horiz-adv-x="331" d="M278 754L174 87H342L329 0H61L178 754H278Z" />
<glyph unicode="M" glyph-name="M" horiz-adv-x="561" d="M289 754L311 210H313L321 241L380 422L496 754H584L537 0H439L464 281L480 421L494 520H492L458 412L316 0H247L231 520H229L119 0H24L203 754H289Z" />
<glyph unicode="N" glyph-name="N" horiz-adv-x="472" d="M228 530L204 277L161 0H61L178 754H274L361 181L363 183L386 485L428 754H528L411 0H318L232 581L230 579L228 530Z" />
<glyph unicode="O" glyph-name="O" horiz-adv-x="476" d="M342 670Q312 670 291 647T254 584T227 491T206 377Q198 328 193 284T188 202Q188 148 202 116T251 84Q281 84 302 107T338 170T365 263T386 377Q394 427 399 471T405 553Q405 607 391 638T342 670ZM357
764Q403 764 432 747T479 700T503 633T510 555Q510 507 504 461T492 377Q487 343 480 301T460 216T429 133T384 60T321 9T236 -10Q190 -10 161 7T114 54T90 122T83 201Q83 248 88 294T100 377Q105 411 113 453T133 538T164 621T209 694T272 745T357 764Z" />
<glyph unicode="P" glyph-name="P" horiz-adv-x="388" d="M265 669L226 419Q230 419 233 419T240 418Q296 418 321 451T356 544Q359 563 359 583Q359 621 342 645T279 669H265ZM61 0L178 754H298Q326 754 356 751T411 734T452 692T468 612Q468 598 467 584T463
552Q446 442 392 388T231 334H213L161 0H61Z" />
<glyph unicode="Q" glyph-name="Q" horiz-adv-x="479" d="M342 670Q312 670 291 647T254 584T227 491T206 377Q198 328 193 284T188 202Q188 148 202 116T251 84Q277 84 294 100L245 191L314 239L343 185H345Q357 231 367 279T386 377Q394 427 399 471T405 553Q405
607 391 638T342 670ZM382 -58L342 21Q318 4 292 -3T236 -10Q190 -10 161 7T114 54T90 122T83 201Q83 248 88 294T100 377Q105 411 113 453T133 538T164 621T209 694T272 745T357 764Q403 764 432 747T479 700T503 633T510 555Q510 507 504 461T492 377Q487 345
480 307T463 229T437 152T401 82L455 -12L382 -58Z" />
<glyph unicode="R" glyph-name="R" horiz-adv-x="416" d="M236 420Q287 420 312 452T346 539Q348 554 349 568T351 595Q351 628 338 648T285 669H281H265L226 420H236ZM178 754H298Q322 754 350 752T403 736T444 696T460 618Q460 605 459 591T455 561Q451 534
442 503T416 443T377 394T321 367L403 0H299L220 369H218L161 0H61L178 754Z" />
<glyph unicode="S" glyph-name="S" horiz-adv-x="354" d="M392 638Q375 652 357 661T312 670Q291 670 274 662T243 641T220 610T208 573Q207 566 207 561T206 549Q206 518 223 491L286 408Q304 387 318 368T342 328T357 286T363 237Q363 226 362 214T359 187Q353
147 335 112T290 49T228 6T151 -10Q122 -10 95 -2T47 26L62 127Q82 110 104 99T155 88Q202 88 227 119T260 193Q261 199 261 205T262 216Q262 246 251 270T222 317T184 361T146 408T117 463T105 532Q105 550 108 571Q114 611 130 646T171 707T230 748T307 764Q336
764 361 759T409 739L392 638Z" />
<glyph unicode="T" glyph-name="T" horiz-adv-x="323" d="M444 754L431 667H318L214 0H114L218 667H100L113 754H444Z" />
<glyph unicode="U" glyph-name="U" horiz-adv-x="467" d="M278 754L192 201Q190 187 189 175T188 153Q188 111 203 98T244 84Q270 84 286 92T312 114T327 147T336 190L424 754H524L441 219Q435 182 426 142T396 68T336 12T232 -10Q189 -10 161 0T117 28T94 72T87
129Q87 153 89 179T97 234L178 754H278Z" />
<glyph unicode="V" glyph-name="V" horiz-adv-x="387" d="M224 754L222 187H224L236 234L316 488L403 754H498L233 0H153L124 754H224Z" />
<glyph unicode="W" glyph-name="W" horiz-adv-x="592" d="M217 754L209 243L204 187H206L275 440L376 754H454L449 192H451L515 434L611 754H708L459 0H379L376 351L383 541L385 560H383L329 357L214 0H132L119 754H217Z" />
<glyph unicode="X" glyph-name="X" horiz-adv-x="427" d="M249 754L276 620Q283 586 288 552T295 482H297L340 586L419 754H521L324 383L404 0H302L276 132Q270 164 264 197T258 264Q258 269 258 273T259 282H257Q252 259 243 238T224 195L132 0H24L226 383L150 754H249Z" />
<glyph unicode="Y" glyph-name="Y" horiz-adv-x="392" d="M227 754L265 405H267L298 502L401 754H508L301 325L251 0H151L201 325L119 754H227Z" />
<glyph unicode="Z" glyph-name="Z" horiz-adv-x="393" d="M492 754L161 87H376L363 0H15L348 667H146L159 754H492Z" />
<glyph unicode="[" glyph-name="bracketleft" horiz-adv-x="300" d="M374 754L364 686H231L118 -35H251L240 -103H21L155 754H374Z" />
<glyph unicode="\" glyph-name="backslash" horiz-adv-x="250" d="M100 830L341 -103H260L21 830H100Z" />
<glyph unicode="]" glyph-name="bracketright" horiz-adv-x="300" d="M379 754L245 -103H26L37 -35H170L283 686H150L160 754H379Z" />
<glyph unicode="^" glyph-name="asciicircum" horiz-adv-x="500" d="M391 754L509 337H442L352 661L162 337H96L342 754H391Z" />
<glyph unicode="_" glyph-name="underscore" horiz-adv-x="500" d="M488 -75L480 -125H-19L-11 -75H488Z" />
<glyph unicode="`" glyph-name="grave" horiz-adv-x="280" d="M249 746L308 597L253 568L175 703L249 746Z" />
<glyph unicode="a" glyph-name="a" horiz-adv-x="380" d="M198 76Q222 76 237 98T263 149T278 208T285 253Q287 267 291 295T295 352Q295 383 287 406T254 429Q228 429 212 408T185 357T171 298T164 253Q162 238 157 210T152 152Q152 122 161 99T198 76ZM253 65H251Q231
32 209 12T146 -8Q119 -8 102 4T75 36T61 81T57 134Q57 169 61 202T69 259Q74 290 83 334T110 417T157 485T231 513Q264 513 283 495T311 449H313L321 505H415L337 0H243L253 65Z" />
<glyph unicode="b" glyph-name="b" horiz-adv-x="380" d="M204 76Q231 76 247 98T273 149T287 208T294 253Q296 268 301 296T306 353Q306 383 297 406T260 429Q236 429 221 407T195 356T180 298T173 253Q171 239 167 212T163 155Q163 124 171 101T204 76ZM172
830H266L207 449H209Q228 478 250 495T309 513Q337 513 355 502T383 471T398 427T402 375Q402 343 399 313T391 259Q386 228 377 183T349 95T303 22T230 -8Q210 -8 197 -3T174 12T159 35T149 65H147L137 0H43L172 830Z" />
<glyph unicode="c" glyph-name="c" horiz-adv-x="278" d="M316 401H314Q303 424 274 425Q244 425 224 406T192 361T174 306T165 257Q163 242 160 221T157 177Q157 159 159 142T169 111T188 89T218 80Q234 80 245 85T269 99L255 12Q218 -8 176 -8Q141 -8 118 5T82
41T64 93T59 152Q59 177 61 201T67 248Q73 287 84 333T117 419T173 486T259 513Q280 513 297 509T331 496L316 401Z" />
<glyph unicode="d" glyph-name="d" horiz-adv-x="380" d="M198 76Q222 76 237 98T263 149T278 208T285 253Q287 267 291 295T295 352Q295 383 287 406T254 429Q228 429 212 408T185 357T171 298T164 253Q162 238 157 210T152 152Q152 122 161 99T198 76ZM253 65H251Q231
32 209 12T146 -8Q119 -8 102 4T75 36T61 81T57 134Q57 169 61 202T69 259Q74 290 83 334T110 417T157 485T231 513Q267 513 284 496T311 449H313L372 830H466L337 0H243L253 65Z" />
<glyph unicode="e" glyph-name="e" horiz-adv-x="361" d="M284 301Q286 312 288 328T290 362Q290 375 288 387T281 408T268 423T247 429Q225 429 212 415T190 380T178 338T172 301H284ZM161 234Q159 220 156 197T153 150Q153 121 161 99T195 76Q214 76 227 85T248
108T262 138T269 170H356Q351 135 338 103T303 46T251 7T181 -8Q144 -8 120 5T83 39T64 89T58 147Q58 173 60 199T67 249Q73 288 84 334T117 419T173 486T260 513Q296 513 319 500T355 464T374 412T380 351Q380 325 378 299T371 249L369 234H161Z" />
<glyph unicode="f" glyph-name="f" horiz-adv-x="249" d="M146 505L172 668Q177 700 184 730T207 785T247 823T313 838Q331 838 345 835T373 824L358 726Q349 731 341 734T321 738Q303 738 293 730T277 710T269 684T264 657L240 505H318L307 431H229L162 0H68L135
431H88L99 505H146Z" />
<glyph unicode="g" glyph-name="g" horiz-adv-x="382" d="M284 250Q286 264 289 290T293 344Q293 377 285 403T251 429Q227 429 211 407T186 356T171 297T164 255Q162 241 158 213T153 156Q153 124 162 100T198 76Q223 76 239 97T264 147T277 205T284 250ZM338
-4Q327 -72 311 -113T272 -177T218 -207T151 -215Q91 -215 57 -186T22 -100Q22 -86 25 -69L27 -55H118Q115 -67 115 -78Q115 -99 126 -115T166 -131Q190 -131 203 -121T224 -95T234 -60T240 -24L253 60H251Q237 30 212 11T154 -8H150Q121 -8 103 3T75 34T60 79T56
132Q56 164 59 194T67 249Q70 269 75 296T88 353T107 411T136 462T176 499T230 513Q268 513 284 494T311 445L313 447L322 505H417L338 -4Z" />
<glyph unicode="h" glyph-name="h" horiz-adv-x="388" d="M267 830L207 447H209Q230 478 257 495T322 513Q347 513 363 506T390 487T403 459T407 423Q407 405 405 386T399 347L345 0H251L305 349Q308 362 308 378Q308 398 299 413T262 429Q239 429 225 417T204
388T193 351T187 315L138 0H44L173 830H267Z" />
<glyph unicode="i" glyph-name="i" horiz-adv-x="180" d="M184 595Q160 595 145 610T129 649Q129 651 129 653T130 658Q135 684 156 702T203 720Q226 720 241 705T256 668Q256 661 255 658Q251 632 230 614T184 595ZM137 0H43L121 505H215L137 0Z" />
<glyph unicode="j" glyph-name="j" horiz-adv-x="180" d="M184 595Q160 595 145 610T129 649Q129 651 129 653T130 658Q135 684 156 702T203 720Q226 719 241 704T256 667Q256 660 255 657Q251 631 231 613T186 595H184V595ZM104 -207H10L121 505H215L104 -207Z" />
<glyph unicode="k" glyph-name="k" horiz-adv-x="395" d="M267 830L181 281H183L335 505H440L276 281L379 0H270L181 268H179L138 0H44L173 830H267Z" />
<glyph unicode="l" glyph-name="l" horiz-adv-x="180" d="M137 0H43L172 830H266L137 0Z" />
<glyph unicode="m" glyph-name="m" horiz-adv-x="590" d="M207 443H209Q228 475 255 494T319 513Q353 513 375 495T399 443H401Q421 476 449 494T516 513Q571 513 591 489T611 426Q611 409 608 391L547 0H453L508 354Q511 369 511 384Q511 403 503 416T469 429Q444
429 430 419T408 392T398 357T392 321L342 0H248L301 343Q303 354 304 364T305 384Q305 403 297 416T261 429Q239 429 226 418T205 391T194 356T187 321L137 0H43L121 505H216L207 443Z" />
<glyph unicode="n" glyph-name="n" horiz-adv-x="388" d="M207 447H209Q230 478 257 495T322 513Q347 513 363 506T390 487T403 458T407 422Q407 404 405 385T399 347L345 0H251L305 349Q308 362 308 378Q308 398 299 413T262 429Q239 429 225 417T204 388T193
351T187 315L138 0H44L122 505H216L207 447Z" />
<glyph unicode="o" glyph-name="o" horiz-adv-x="375" d="M200 78Q227 78 243 100T269 151T283 208T290 251Q292 265 296 292T301 349Q301 380 292 403T254 427Q227 427 211 405T185 354T171 296T164 251Q162 238 158 212T153 156Q153 125 162 102T200 78ZM186
-8Q148 -8 123 5T84 41T65 91T59 151Q59 177 61 202T68 251Q74 292 86 338T120 423T178 487T268 513Q306 513 330 500T369 465T389 413T395 353Q395 327 393 301T386 251Q380 211 368 166T334 82T276 18T186 -8Z" />
<glyph unicode="p" glyph-name="p" horiz-adv-x="380" d="M204 76Q226 76 241 91T266 132T282 189T294 252Q296 267 301 295T306 353Q306 383 297 406T260 429Q236 429 221 407T195 356T180 297T173 252Q171 238 167 210T163 153Q163 122 171 99T204 76ZM205 440H207Q226
472 249 492T312 513Q339 513 356 501T383 470T397 425T401 372Q401 337 397 304T389 247Q386 226 381 199T368 143T348 88T319 39T280 5T227 -8Q190 -8 174 9T147 57H145L104 -207H10L121 505H215L205 440Z" />
<glyph unicode="q" glyph-name="q" horiz-adv-x="380" d="M198 76Q222 76 237 98T263 149T278 207T285 252Q287 267 291 294T295 351Q295 382 287 405T254 429Q228 429 212 407T185 356T171 298T164 252Q162 237 157 209T152 152Q152 122 161 99T198 76ZM304 -207H210L251
57H249Q230 26 208 9T149 -8Q121 -8 103 3T75 34T60 78T56 130Q56 162 59 192T67 247Q70 267 75 295T88 352T108 411T137 462T176 499T228 513Q267 513 284 493T309 440H311L321 505H415L304 -207Z" />
<glyph unicode="r" glyph-name="r" horiz-adv-x="269" d="M207 443H209Q231 476 259 494T327 513L312 420L296 421Q243 421 220 394T188 318L139 0H44L122 505H216L207 443Z" />
<glyph unicode="s" glyph-name="s" horiz-adv-x="276" d="M296 402Q285 414 267 421T231 429Q205 429 184 415T158 375Q158 373 158 371T157 367Q157 340 176 322T219 284T262 238T282 169Q282 163 282 157T280 142Q269 75 224 34T111 -8Q86 -8 69 -3T33 16L47
108Q63 94 79 85T120 76Q151 76 169 93T193 140Q194 144 194 151Q194 178 175 197T132 236T90 282T70 349Q70 355 70 361T72 375Q77 405 91 430T125 474T172 502T229 513Q253 513 272 508T310 491L296 402Z" />
<glyph unicode="t" glyph-name="t" horiz-adv-x="221" d="M258 648L235 505H285L274 431H224L157 0H63L130 431H79L90 505H141L164 648H258Z" />
<glyph unicode="u" glyph-name="u" horiz-adv-x="389" d="M216 505L167 189Q165 175 163 160T160 131Q160 109 169 94T208 78Q232 78 245 88T265 114T274 148T280 184L330 505H424L371 164Q365 125 354 93T322 39T271 4T198 -8Q159 -8 134 0T93 23T71 59T65 108Q65
125 67 144T72 184L122 505H216Z" />
<glyph unicode="v" glyph-name="v" horiz-adv-x="358" d="M191 505L200 123H202L209 153L278 357L332 505H423L212 0H150L91 505H191Z" />
<glyph unicode="w" glyph-name="w" horiz-adv-x="487" d="M174 505L173 153L172 143H174L220 300L291 505H358L360 153L359 143H361L416 331L476 505H568L371 0H307L296 259L304 371H302L251 190L185 0H120L75 505H174Z" />
<glyph unicode="x" glyph-name="x" horiz-adv-x="395" d="M202 505L246 332L282 407L338 505H436L285 267L382 0H271L238 109Q231 132 226 154T220 200V205H218Q210 176 196 149T166 94L112 0H14L181 267L92 505H202Z" />
<glyph unicode="y" glyph-name="y" horiz-adv-x="373" d="M187 505L206 153H208L348 505H443L126 -207H27L144 41L82 505H187Z" />
<glyph unicode="z" glyph-name="z" horiz-adv-x="335" d="M399 505L165 84H325L312 0H14L254 421H92L105 505H399Z" />
<glyph unicode="{" glyph-name="braceleft" horiz-adv-x="258" d="M57 353Q73 355 89 359T120 372T144 396T159 434L189 622Q195 661 208 686T241 727T286 748T341 754H372L364 697Q320 693 299 675T271 610L246 451Q242 427 235 407T216 372T183 345T133 328L132
326Q177 316 193 295T210 241Q210 224 207 203L182 44Q179 27 179 16Q179 -14 196 -27T248 -43L239 -100H208Q182 -100 161 -96T125 -80T102 -51T94 -5Q94 11 97 32L126 220Q127 224 127 227Q127 231 127 234Q127 253 120 265T102 284T77 295T49 301L57 353Z" />
<glyph unicode="|" glyph-name="bar" horiz-adv-x="250" d="M282 786L126 -214H56L212 786H282Z" />
<glyph unicode="}" glyph-name="braceright" horiz-adv-x="258" d="M-3 -43Q40 -39 61 -21T88 44L113 203Q117 227 123 247T143 282T176 309T226 326L227 328Q182 338 166 359T149 413Q149 430 152 451L177 610Q180 626 180 640Q180 669 164 681T112 697L120 754H151Q202
754 234 734T266 658Q266 641 263 622L233 434Q233 431 233 428T232 421Q232 402 239 390T257 370T282 359T311 353L303 301Q287 299 271 295T240 282T215 258T200 220L171 32Q165 -7 151 -32T118 -73T73 -94T18 -100H-12L-3 -43Z" />
<glyph unicode="~" glyph-name="asciitilde" horiz-adv-x="500" d="M212 331Q234 331 257 321T303 296Q326 283 346 272T382 261Q396 261 409 269T435 289T457 315T476 344L503 297Q491 277 477 257T445 221T410 196T370 186Q359 186 345 191T316 203T289 217T265
230Q251 238 235 246T200 255Q184 255 171 247T145 225T123 196T103 165L77 213Q90 234 104 255T135 293T171 320T212 331Z" />
<glyph unicode="&#x80;" glyph-name="Euro" horiz-adv-x="411" d="M489 658Q475 664 460 668T427 673Q380 673 347 653T291 601T253 531T230 456H435L421 406H220L215 372Q213 361 212 349T208 324H399L385 274H204V263Q204 230 209 197T230 138T271 96T339 80Q370
80 401 91L387 6Q368 -3 349 -6T308 -10Q247 -10 208 10T146 65T114 143T105 235Q105 245 105 254Q105 264 106 274H62L76 324H110L123 406H83L97 456H134Q147 509 168 563T223 662T305 735T422 763Q450 763 470 759T512 741L489 658Z" />
</font>
</defs>
</svg>
