<?xml version="1.0" standalone="no"?> <!DOCTYPE svg PUBLIC "-//W3C//DTD SVG 1.0//EN" "http://www.w3.org/TR/2001/REC-SVG-20010904/DTD/svg10.dtd" > <svg xmlns="http://www.w3.org/2000/svg" width="100%" height="100%">
<defs >
<font id="futuraltmediumoblique" horiz-adv-x="420" ><font-face
    font-family="Futura LT Medium"
    units-per-em="1000"
    panose-1="2 0 5 4 3 0 0 9 0 4"
    ascent="995"
    descent="-268"
    alphabetic="0" />
<missing-glyph horiz-adv-x="500" d="M442 8V504H58V8H442ZM50 512H450V0H50V512Z" />
<glyph unicode=" " glyph-name="space" horiz-adv-x="289" />
<glyph unicode="!" glyph-name="exclam" horiz-adv-x="321" d="M235 754H325L234 174H144L235 754ZM177 100Q201 100 215 83T226 42Q222 18 202 1T158 -16Q134 -16 120 1T110 42Q114 65 133 82T177 100Z" />
<glyph unicode="&quot;" glyph-name="quotedbl" horiz-adv-x="439" d="M468 754L398 426H336L370 754H468ZM307 754L237 426H175L209 754H307Z" />
<glyph unicode="#" glyph-name="numbersign" horiz-adv-x="578" d="M264 290H387L438 444H315L264 290ZM408 718L341 524H465L531 718H610L544 524H636L623 444H516L465 290H566L553 210H436L365 0H289L359 210H236L163 0H88L158 210H58L71 290H186L237 444H132L145
524H264L331 718H408Z" />
<glyph unicode="$" glyph-name="dollar" horiz-adv-x="578" d="M391 683Q351 677 320 649T282 580Q279 558 283 541T299 512T325 489T358 472L391 683ZM419 860H469L455 770Q511 765 549 735T608 654L521 609Q510 639 491 656T441 683L404 448Q439 431 471 411T526
363T559 300T563 218Q556 177 535 138T482 66T411 12T330 -16L315 -111H265L280 -16Q236 -15 200 1T137 46T96 113T81 194L174 213Q176 149 202 115T294 72L342 372L309 390Q282 405 258 421T218 459T195 508T194 573T219 644T267 706T331 750T405 770L419 860ZM345
78Q369 83 390 96T429 127T457 167T472 214Q476 239 471 259T453 296T424 325T388 349L345 78Z" />
<glyph unicode="%" glyph-name="percent" horiz-adv-x="708" d="M558 267Q535 267 513 258T472 234T441 199T425 155Q421 132 427 112T446 77T480 53T523 44Q546 44 568 53T609 77T640 112T657 155Q660 178 654 198T635 234T601 258T558 267ZM568 327Q604 327
633 314T683 277T713 223T717 155T692 88T645 34T583 -2T513 -16Q478 -16 448 -3T398 34T369 88T365 155T390 222T436 277T498 313T568 327ZM715 744L154 -16L112 9L674 770L715 744ZM305 710Q282 710 260 701T219 677T189 642T172 598T174 555T193 520T227 496T270
487Q293 487 315 496T356 520T387 555T404 598T402 641T382 677T348 701T305 710ZM315 770Q351 770 380 757T430 720T460 666T464 598T439 531T392 477T330 441T261 427Q226 427 196 440T146 477T116 531T112 598T137 665T183 720T245 756T315 770Z" />
<glyph unicode="&amp;" glyph-name="ampersand" horiz-adv-x="692" d="M526 102Q501 77 472 56T412 18T347 -7T281 -16Q234 -16 195 0T129 46T90 116T86 206Q92 242 106 270T143 322T192 366T249 406L302 440Q288 457 276 476T256 515T245 558T245 605Q251 644
269 674T314 726T374 759T445 770Q479 770 509 760T560 729T590 679T594 613Q589 581 573 554T533 504T482 462T427 425L554 235L658 337L709 275L599 167L708 0H592L526 102ZM398 498Q414 509 432 521T465 546T492 576T506 614Q513 654 491 675T431 696Q414 696
398 690T369 674T347 649T335 616Q333 602 334 590T340 566T351 543T365 522L385 490L398 498ZM336 366Q314 352 288 336T237 300T196 257T174 207Q169 180 177 155T201 111T241 80T292 68Q318 68 343 77T392 100T438 132T481 168L346 372L336 366Z" />
<glyph unicode="&apos;" glyph-name="quotesingle" horiz-adv-x="277" d="M307 754L237 426H175L209 754H307Z" />
<glyph unicode="(" glyph-name="parenleft" horiz-adv-x="292" d="M354 754Q323 704 298 649T254 537T221 421T198 308T185 195T181 80T189 -33T213 -138L130 -193Q111 -139 101 -77T89 51T91 182T106 308Q115 369 131 434T170 565T223 692T289 809L354 754Z" />
<glyph unicode=")" glyph-name="parenright" horiz-adv-x="292" d="M259 809Q278 755 288 693T300 565T298 435T284 308Q274 248 258 183T219 52T166 -76T100 -193L35 -138Q66 -89 91 -34T136 79T169 195T192 308T205 421T209 536T200 649T176 754L259 809Z" />
<glyph unicode="*" glyph-name="asterisk" horiz-adv-x="432" d="M372 754L357 659L446 707L472 648L379 598L456 548L412 490L339 540L323 444H254L270 541L175 492L150 549L243 598L167 648L207 705L288 656L303 754H372Z" />
<glyph unicode="+" glyph-name="plus" horiz-adv-x="578" d="M413 512L379 299H592L579 213H366L332 0H246L280 213H67L80 299H293L327 512H413Z" />
<glyph unicode="," glyph-name="comma" horiz-adv-x="289" d="M256 88L81 -179L29 -156L183 119L256 88Z" />
<glyph unicode="-" glyph-name="hyphenminus" horiz-adv-x="332" d="M333 358L321 283H102L114 358H333Z" />
<glyph unicode="." glyph-name="period" horiz-adv-x="289" d="M161 100Q185 100 199 83T210 42Q206 18 186 1T142 -16Q118 -16 104 1T94 42Q98 65 117 82T161 100Z" />
<glyph unicode="/" glyph-name="slash" horiz-adv-x="551" d="M652 836L83 -126L17 -94L585 868L652 836Z" />
<glyph unicode="0" glyph-name="zero" horiz-adv-x="578" d="M398 690Q347 690 309 656T243 573T199 471T176 378Q172 352 170 319T170 252T181 184T204 125T242 84T300 68Q334 68 362 83T414 125T455 184T486 251T509 319T522 378T527 437T527 505T517 573T494
632T456 674T398 690ZM286 -16Q237 -16 202 2T143 51T104 122T84 206T79 294T86 377T105 460T137 547T184 631T245 702T321 751T411 770Q460 770 495 752T555 703T593 632T614 548T619 460T612 377Q606 339 593 295T560 207T512 123T451 52T376 3T286 -16Z" />
<glyph unicode="1" glyph-name="one" horiz-adv-x="578" d="M229 668L294 754H463L344 0H254L360 668H229Z" />
<glyph unicode="2" glyph-name="two" horiz-adv-x="578" d="M546 86L532 0H45L439 405Q467 434 494 468T528 540Q532 570 524 596T499 641T456 672T402 684Q373 684 346 673T297 644T258 600T235 546H141Q155 596 180 637T241 708T320 754T416 770Q464 770 504
753T573 706T613 635T618 544Q611 502 590 462T538 389L242 86H546Z" />
<glyph unicode="3" glyph-name="three" horiz-adv-x="578" d="M344 438Q374 438 402 444T452 464T490 502T512 559Q516 587 510 611T489 652T452 678T401 688Q350 688 312 659T259 580H166Q195 674 259 722T417 770Q462 770 499 756T562 716T599 652T603 567Q594
511 564 468T480 397Q531 371 549 321T557 210Q549 157 524 115T461 44T378 0T280 -16Q236 -16 198 -2T132 38T91 102T82 186H173Q172 158 181 136T208 99T249 75T300 66Q331 66 359 77T410 109T448 156T468 214Q479 286 441 325T332 360L344 438Z" />
<glyph unicode="4" glyph-name="four" horiz-adv-x="578" d="M459 503H457L195 192H409L459 503ZM585 192L572 110H486L469 0H379L396 110H24L593 786L499 192H585Z" />
<glyph unicode="5" glyph-name="five" horiz-adv-x="578" d="M397 668L325 513L379 516Q434 516 475 495T542 437T577 352T579 252Q570 192 540 143T467 59T369 4T257 -16Q222 -16 190 -7T130 19T81 60T48 116L129 182Q134 158 148 138T183 102T228 79T278 70Q316
70 351 84T415 124T463 183T489 255Q495 291 486 323T456 380T405 419T338 434Q298 434 257 417T186 367H168L345 754H647L634 668H397Z" />
<glyph unicode="6" glyph-name="six" horiz-adv-x="578" d="M301 68Q332 68 363 80T419 113T462 162T485 222Q491 257 482 287T454 338T408 372T351 384Q320 384 289 371T233 336T189 286T166 227Q161 194 169 166T196 115T242 81T301 68ZM562 724L318 452L319
450Q337 458 356 463T396 468Q442 468 479 448T540 395T574 320T577 232Q569 180 542 135T476 57T388 4T288 -16Q239 -16 197 3T126 54T82 131T76 225Q85 282 117 330T189 424L501 770L562 724Z" />
<glyph unicode="7" glyph-name="seven" horiz-adv-x="578" d="M153 668L166 754H709L117 -16L52 29L543 668H153Z" />
<glyph unicode="8" glyph-name="eight" horiz-adv-x="578" d="M398 690Q372 690 348 680T303 652T268 611T250 560Q246 537 253 515T276 474T312 444T357 432Q381 432 405 443T451 473T487 514T506 560Q510 587 504 610T482 652T445 680T398 690ZM86 210Q91 240
103 268T134 321T178 363T234 391Q191 417 172 460T162 560Q169 606 192 644T248 711T324 754T411 770Q456 770 493 755T554 711T590 645T594 560Q585 504 552 461T468 391Q496 381 515 363T545 321T560 269T558 210Q550 157 525 116T462 45T380 0T286 -16Q238
-16 198 -1T130 44T90 115T86 210ZM345 352Q316 352 288 341T237 311T198 266T176 210Q171 181 179 156T205 111T247 80T300 68Q328 68 356 79T407 110T447 155T468 210Q473 240 465 266T440 311T398 341T345 352Z" />
<glyph unicode="9" glyph-name="nine" horiz-adv-x="578" d="M361 370Q397 370 428 383T484 418T525 468T546 528Q550 558 542 586T517 637T474 672T417 686Q383 686 351 674T293 640T249 589T226 528Q220 494 229 465T258 415T305 382T361 370ZM150 31L394 302L392
304Q374 296 356 293T317 290Q270 290 233 309T172 361T138 435T135 522Q143 574 170 619T236 697T323 750T423 770Q472 770 514 751T586 700T630 623T636 529Q627 472 595 424T522 330L210 -16L150 31Z" />
<glyph unicode=":" glyph-name="colon" horiz-adv-x="289" d="M221 482Q245 482 259 465T270 424Q266 400 247 383T203 366Q179 366 165 383T154 424Q158 447 177 464T221 482ZM161 100Q185 100 199 83T210 42Q206 18 186 1T142 -16Q118 -16 104 1T94 42Q98 65
117 82T161 100Z" />
<glyph unicode=";" glyph-name="semicolon" horiz-adv-x="289" d="M268 482Q292 482 306 465T317 424Q313 400 294 383T250 366Q226 366 212 383T201 424Q205 447 224 464T268 482ZM248 88L73 -179L21 -156L175 119L248 88Z" />
<glyph unicode="&lt;" glyph-name="less" horiz-adv-x="578" d="M609 404L202 256L562 108L547 14L68 221L79 291L624 498L609 404Z" />
<glyph unicode="=" glyph-name="equal" horiz-adv-x="578" d="M579 213L565 127H53L67 213H579ZM606 385L592 299H80L94 385H606Z" />
<glyph unicode="&gt;" glyph-name="greater" horiz-adv-x="578" d="M112 498L591 291L580 221L35 14L50 108L458 256L97 404L112 498Z" />
<glyph unicode="?" glyph-name="question" horiz-adv-x="453" d="M246 100Q270 100 284 83T295 42Q291 18 271 1T227 -16Q203 -16 189 1T179 42Q183 65 202 82T246 100ZM447 345Q443 312 425 283T381 232T323 197T259 184Q226 184 199 196T153 230T126 281T123
344Q129 380 144 404T179 444T223 471T273 491Q297 500 321 508T364 527T397 555T414 596Q421 638 399 661T336 685Q318 685 302 678T272 660T249 633T237 599Q235 591 236 583T238 567H144L147 600Q151 637 170 668T218 721T282 757T353 770Q391 770 421 757T472
720T502 664T505 593Q500 558 481 525T431 469Q403 447 367 435T298 413Q284 409 270 403T245 389T225 368T214 340Q209 310 225 289T272 268Q304 268 327 290T356 345H447Z" />
<glyph unicode="@" glyph-name="at" horiz-adv-x="800" d="M632 568H703L612 311Q607 298 602 283T595 255T596 234T613 225Q630 225 651 241T693 284T729 345T751 417Q761 480 749 530T705 616T628 671T524 690Q461 690 403 666T297 599T218 499T176 377Q165
308 181 251T234 152T324 87T442 64Q505 64 554 76T636 112L701 52Q672 38 643 26T581 4T509 -10T421 -16Q340 -16 275 13T165 95T101 220T96 377Q109 461 150 533T251 657T385 740T540 770Q606 770 662 749T761 683Q806 638 827 581T837 453Q827 390 802 335T741
241Q697 193 653 173T573 154Q553 155 541 171T529 216Q500 190 464 172T383 154Q350 154 322 168T275 208T247 266T245 339Q252 384 273 427T326 503T398 557T486 577Q524 577 554 561T608 506L632 568ZM562 372Q579 433 556 466T480 499Q450 499 423 486T376
450T342 401T324 346Q320 324 323 304T337 267T365 242T406 232Q439 232 465 243T510 274T541 319T562 372Z" />
<glyph unicode="A" glyph-name="A" horiz-adv-x="703" d="M444 580L262 275H530L444 580ZM209 189L93 0H-8L476 786L712 0H611L555 189H209Z" />
<glyph unicode="B" glyph-name="B" horiz-adv-x="535" d="M183 754H275Q328 754 376 746T460 714T512 651T519 547Q516 526 507 505T485 464T454 429T415 404V402Q447 396 472 378T512 334T534 276T535 211Q526 154 498 114T429 49T339 12T240 0H64L183 754ZM171
84H243Q276 84 308 89T368 110T416 151T442 217T434 282T395 321T336 340T271 345H213L171 84ZM225 420H249Q282 420 312 424T366 442T407 480T430 546Q436 586 428 610T400 647T352 665T290 670H264L225 420Z" />
<glyph unicode="C" glyph-name="C" horiz-adv-x="661" d="M718 610Q683 646 634 665T530 684Q467 684 409 660T304 593T226 495T184 376Q174 314 187 259T234 161T317 95T431 70Q487 70 541 90T644 148L627 37Q579 11 525 -2T420 -16Q339 -16 273 14T161 96T96
220T89 373Q102 457 145 529T251 655T392 739T553 770Q603 770 649 758T735 719L718 610Z" />
<glyph unicode="D" glyph-name="D" horiz-adv-x="665" d="M172 86H205Q277 86 344 100T465 149T558 239T609 377T602 515T538 605T432 653T297 668H264L172 86ZM183 754H339Q426 754 499 731T622 662T695 545T703 381Q688 285 644 213T534 94T388 24T217 0H64L183 754Z" />
<glyph unicode="E" glyph-name="E" horiz-adv-x="521" d="M191 754H596L583 668H272L238 457H540L527 371H225L180 86H491L477 0H72L191 754Z" />
<glyph unicode="F" glyph-name="F" horiz-adv-x="474" d="M271 668L237 456H499L486 370H224L165 0H71L190 754H555L542 668H271Z" />
<glyph unicode="G" glyph-name="G" horiz-adv-x="780" d="M819 380L814 350Q802 272 766 206T674 90T549 12T399 -16Q320 -16 256 15T148 101T87 226T80 375Q93 456 135 528T238 654T376 739T534 770Q622 770 697 732T818 624L742 561Q710 616 652 650T524 684Q461
684 402 660T296 595T217 497T175 378Q166 319 180 264T226 165T308 96T419 70Q463 70 509 87T595 135T664 207T702 294H507L520 380H819Z" />
<glyph unicode="H" glyph-name="H" horiz-adv-x="675" d="M588 450L636 754H730L611 0H517L574 362H215L158 0H64L183 754H277L229 450H588Z" />
<glyph unicode="I" glyph-name="I" horiz-adv-x="232" d="M163 0H69L188 754H282L163 0Z" />
<glyph unicode="J" glyph-name="J" horiz-adv-x="362" d="M422 754L347 275Q338 221 323 169T279 75T206 9T96 -16Q63 -16 36 -8T-16 17L43 97Q73 72 114 72Q154 72 179 93T219 144T241 210T253 275L328 754H422Z" />
<glyph unicode="K" glyph-name="K" horiz-adv-x="600" d="M605 754H728L336 415L615 0H488L260 351L216 315L166 0H72L191 754H285L234 427L605 754Z" />
<glyph unicode="L" glyph-name="L" horiz-adv-x="385" d="M180 86H409L395 0H72L191 754H285L180 86Z" />
<glyph unicode="M" glyph-name="M" horiz-adv-x="851" d="M279 498H277L110 0H13L291 786L456 192L809 786L839 0H742L733 498H731L423 -16L279 498Z" />
<glyph unicode="N" glyph-name="N" horiz-adv-x="785" d="M188 790L660 197L748 754H842L718 -31L246 562L157 0H63L188 790Z" />
<glyph unicode="O" glyph-name="O" horiz-adv-x="828" d="M425 72Q486 72 544 95T650 160T731 256T775 377Q785 439 772 494T725 591T640 657T522 682Q456 682 397 658T291 592T214 495T173 377Q162 312 177 257T227 160T313 96T425 72ZM536 770Q617 770 684 739T796
655T862 530T869 377Q855 293 813 221T708 97T570 14T411 -16Q329 -16 262 14T150 96T85 221T79 377Q92 458 134 529T239 654T378 739T536 770Z" />
<glyph unicode="P" glyph-name="P" horiz-adv-x="495" d="M229 400H259Q295 400 331 404T399 424T452 466T481 538Q488 582 474 608T431 648T368 666T297 670H272L229 400ZM166 0H72L191 754H299Q386 754 442 740T529 697T568 629T569 536Q560 476 532 435T464
367T374 328T270 316H216L166 0Z" />
<glyph unicode="Q" glyph-name="Q" horiz-adv-x="828" d="M653 166Q678 185 698 210T734 264T760 321T775 377Q785 439 772 494T725 591T640 657T522 682Q456 682 397 658T291 592T214 495T173 377Q162 312 177 257T227 160T313 96T425 72Q460 72 502 82T582 115L436
284H553L653 166ZM691 -16L637 51Q585 19 525 2T411 -16Q329 -16 262 14T150 96T85 221T79 377Q92 458 134 529T239 654T378 739T536 770Q617 770 684 739T796 655T862 530T869 377T814 224T707 99L805 -16H691Z" />
<glyph unicode="R" glyph-name="R" horiz-adv-x="543" d="M229 397H259Q295 397 331 401T399 421T452 463T481 535Q488 579 473 605T431 646T368 665T297 670H272L229 397ZM541 0H427L256 319H217L166 0H72L191 754H305Q356 754 406 750T499 719Q542 691 560 642T569
539Q563 498 544 462T497 398T433 352T355 328L541 0Z" />
<glyph unicode="S" glyph-name="S" horiz-adv-x="537" d="M504 611Q488 646 463 664T394 682Q371 682 348 675T304 653T270 620T251 575Q248 553 255 536T275 506T305 484T339 467L390 446Q427 430 458 411T510 364T539 302T541 219Q533 168 507 125T444 50T360
2T262 -16Q216 -16 179 0T116 44T76 111T63 195L161 215Q156 184 163 158T187 112T229 83T284 72Q314 72 341 84T391 116T427 162T447 219T444 271T421 310T384 339T339 362L291 384Q261 398 234 414T188 453T160 506T157 575Q164 621 188 657T248 718T325 756T410
770Q473 770 518 741T586 656L504 611Z" />
<glyph unicode="T" glyph-name="T" horiz-adv-x="456" d="M275 0H181L287 668H108L121 754H573L560 668H381L275 0Z" />
<glyph unicode="U" glyph-name="U" horiz-adv-x="669" d="M272 754L202 309Q194 263 195 220T212 144T259 92T346 72Q400 72 438 91T503 144T543 220T566 309L636 754H730L655 277Q645 215 618 162T549 69T452 7T332 -16Q267 -16 220 6T143 68T104 161T103 277L178
754H272Z" />
<glyph unicode="V" glyph-name="V" horiz-adv-x="640" d="M352 196L664 754H767L315 -40L112 754H215L352 196Z" />
<glyph unicode="W" glyph-name="W" horiz-adv-x="1027" d="M335 214L636 770L761 214L1057 754H1159L722 -30L597 523L296 -30L107 754H209L335 214Z" />
<glyph unicode="X" glyph-name="X" horiz-adv-x="574" d="M148 754H255L366 479L573 754H680L407 395L573 0H468L339 309L105 0H0L300 395L148 754Z" />
<glyph unicode="Y" glyph-name="Y" horiz-adv-x="573" d="M113 754H221L355 432L591 754H699L386 328L334 0H240L292 328L113 754Z" />
<glyph unicode="Z" glyph-name="Z" horiz-adv-x="552" d="M558 86L544 0H9L497 668H169L182 754H663L176 86H558Z" />
<glyph unicode="[" glyph-name="bracketleft" horiz-adv-x="311" d="M136 -109H234L220 -193H30L189 809H379L366 725H268L136 -109Z" />
<glyph unicode="\" glyph-name="backslash" horiz-adv-x="551" d="M252 868L519 0H435L168 868H252Z" />
<glyph unicode="]" glyph-name="bracketright" horiz-adv-x="311" d="M273 725H175L188 809H378L219 -193H29L43 -109H141L273 725Z" />
<glyph unicode="^" glyph-name="asciicircum" horiz-adv-x="578" d="M352 754H464L594 308H500L395 670L175 308H82L352 754Z" />
<glyph unicode="_" glyph-name="underscore" horiz-adv-x="500" d="M480 -125H-20L-12 -75H488L480 -125Z" />
<glyph unicode="`" glyph-name="grave" horiz-adv-x="360" d="M275 734L374 568L326 541L185 690L275 734Z" />
<glyph unicode="a" glyph-name="a" horiz-adv-x="556" d="M501 0H411L423 73H421Q387 33 343 9T247 -16Q193 -16 155 4T94 60T64 141T64 237Q71 285 93 329T150 407T228 461T323 482Q375 482 412 457T471 390H473L485 468H575L501 0ZM274 64Q311 64 341 77T395
114T432 168T453 234Q458 268 453 298T432 352T390 388T328 402Q293 402 264 388T211 351T173 297T153 234T153 171T173 116T213 78T274 64Z" />
<glyph unicode="b" glyph-name="b" horiz-adv-x="556" d="M192 868H282L207 390H209Q244 432 288 457T386 482Q437 482 474 462T535 408T566 330T568 237Q560 187 538 141T481 60T402 5T303 -16Q253 -16 216 8T159 73H157L145 0H55L192 868ZM298 64Q335 64 365
77T419 114T456 168T477 234Q482 268 477 298T456 352T414 388T352 402Q317 402 288 388T235 351T197 297T177 234T177 171T197 116T237 78T298 64Z" />
<glyph unicode="c" glyph-name="c" horiz-adv-x="441" d="M459 335Q414 398 335 398Q302 398 272 385T217 349T175 296T153 234Q147 198 154 168T180 115T225 81T289 68Q328 68 362 84T427 130L408 15Q375 -2 342 -9T274 -16Q222 -16 180 2T108 54T67 132T62 230Q71
284 98 330T164 410T254 463T358 482Q390 482 421 475T477 451L459 335Z" />
<glyph unicode="d" glyph-name="d" horiz-adv-x="556" d="M423 73H421Q387 33 342 9T247 -16Q193 -16 155 4T93 60T63 141T64 237Q71 285 93 329T150 407T227 461T322 482Q375 482 412 457T471 390H473L548 868H638L501 0H411L423 73ZM274 64Q311 64 341 77T395
114T432 168T453 234Q458 268 453 298T432 352T390 388T328 402Q293 402 264 388T211 351T173 297T153 234T153 171T173 116T213 78T274 64Z" />
<glyph unicode="e" glyph-name="e" horiz-adv-x="488" d="M428 287Q429 340 401 372T318 404Q265 404 224 371T166 287H428ZM151 219Q146 189 151 161T172 112T211 77T267 64Q319 64 354 88T422 155L491 112Q448 51 385 18T253 -16Q199 -16 160 3T96 55T63 133T62
230Q71 284 92 330T148 410T227 463T330 482Q386 482 424 463T484 410T512 331T510 233L508 219H151Z" />
<glyph unicode="f" glyph-name="f" horiz-adv-x="275" d="M417 777Q404 783 389 789T360 796Q336 796 321 783T297 750T284 708T276 669L244 468H368L355 384H231L170 0H80L141 384H100L113 468H154L190 696Q196 734 208 767T242 826T295 865T370 880Q404 880
431 868L417 777Z" />
<glyph unicode="g" glyph-name="g" horiz-adv-x="555" d="M501 9Q492 -51 474 -102T425 -190T346 -247T230 -268Q181 -268 142 -254T78 -212T41 -145T37 -56H127Q117 -119 150 -153T246 -188Q288 -188 316 -175T362 -138T391 -84T407 -16L422 73H420Q386 33 341
9T246 -16Q192 -16 154 4T92 60T62 141T63 237Q70 285 92 329T149 407T226 461T321 482Q374 482 411 457T469 388H471L484 468H574L501 9ZM273 64Q310 64 340 77T394 114T431 168T452 234Q457 268 452 298T431 352T389 388T327 402Q292 402 263 388T210 351T172
297T152 234T152 171T172 116T212 78T273 64Z" />
<glyph unicode="h" glyph-name="h" horiz-adv-x="523" d="M289 868L216 405H218Q245 443 286 462T371 482Q420 482 450 467T494 424T510 359T505 279L461 0H371L413 268Q418 298 419 322T412 365T385 392T332 402Q288 402 262 385T221 340T199 280T186 215L152
0H62L199 868H289Z" />
<glyph unicode="i" glyph-name="i" horiz-adv-x="254" d="M245 745Q271 745 286 727T297 682Q293 656 272 639T225 621Q199 621 184 638T173 682Q178 708 198 726T245 745ZM172 0H82L156 468H246L172 0Z" />
<glyph unicode="j" glyph-name="j" horiz-adv-x="254" d="M245 745Q271 745 286 727T297 682Q293 656 272 639T225 621Q199 621 184 638T173 682Q178 708 198 726T245 745ZM130 -268H40L156 468H246L130 -268Z" />
<glyph unicode="k" glyph-name="k" horiz-adv-x="462" d="M204 292L408 468H527L296 274L473 0H356L223 213L187 182L158 0H68L205 868H295L204 292Z" />
<glyph unicode="l" glyph-name="l" horiz-adv-x="222" d="M156 0H66L203 868H293L156 0Z" />
<glyph unicode="m" glyph-name="m" horiz-adv-x="767" d="M214 409H216Q240 440 276 461T351 482Q397 482 426 460T473 399Q501 437 543 459T630 482Q676 482 703 466T744 421T758 357T753 280L709 0H619L661 265Q664 287 665 311T662 356T641 389T596 402Q560
402 537 385T499 343T477 287T465 230L429 0H339L378 248Q382 271 384 298T383 348T363 386T317 402Q281 402 258 386T220 344T197 288T185 230L149 0H59L133 468H223L214 409Z" />
<glyph unicode="n" glyph-name="n" horiz-adv-x="523" d="M216 405H218Q245 443 286 462T371 482Q420 482 450 467T494 424T510 359T505 279L461 0H371L413 268Q418 298 419 322T412 365T385 392T332 402Q288 402 262 385T221 340T199 280T186 215L152 0H62L136
468H226L216 405Z" />
<glyph unicode="o" glyph-name="o" horiz-adv-x="540" d="M333 396Q300 396 269 383T212 348T170 296T147 233T149 171T175 119T220 83T281 70Q314 70 345 83T402 118T444 170T467 233T465 296T439 348T394 383T333 396ZM346 482Q398 482 441 463T512 411T553
332T557 233T522 135T456 56T368 3T267 -16Q214 -16 172 3T102 55T61 134T57 233T91 331T157 410T244 463T346 482Z" />
<glyph unicode="p" glyph-name="p" horiz-adv-x="556" d="M207 390H209Q244 432 288 457T386 482Q437 482 474 462T535 408T566 330T568 237Q560 187 538 141T481 60T402 5T303 -16Q253 -16 216 8T159 73H157L103 -268H13L129 468H219L207 390ZM298 64Q335 64
365 77T419 114T456 168T477 234Q482 268 477 298T456 352T414 388T352 402Q317 402 288 388T235 351T197 297T177 234T177 171T197 116T237 78T298 64Z" />
<glyph unicode="q" glyph-name="q" horiz-adv-x="556" d="M459 -268H369L423 73H421Q387 33 342 9T247 -16Q193 -16 155 4T93 60T63 141T64 237Q71 285 93 329T150 407T227 461T322 482Q375 482 412 457T471 390H473L485 468H575L459 -268ZM274 64Q311 64 341
77T395 114T432 168T453 234Q458 268 453 298T432 352T390 388T328 402Q293 402 264 388T211 351T173 297T153 234T153 171T173 116T213 78T274 64Z" />
<glyph unicode="r" glyph-name="r" horiz-adv-x="351" d="M220 392H223Q246 434 283 458T365 482Q385 482 403 476T436 459L382 377Q371 388 359 392T330 396Q294 396 270 381T230 341T207 288T194 230L158 0H68L142 468H232L220 392Z" />
<glyph unicode="s" glyph-name="s" horiz-adv-x="384" d="M307 361Q302 378 288 390T254 402Q235 402 218 389T197 356Q195 341 202 330T223 308T255 290T293 272T329 252T360 224T378 188T380 139Q375 106 358 78T315 28T258 -4T194 -16Q168 -16 145 -9T102 11T69
44T49 89L132 124Q142 98 158 81T207 64Q236 64 260 82T289 130Q292 149 285 159T264 181L183 228Q165 238 151 249T126 273T112 304T112 346Q116 374 131 399T167 442T215 471T271 482Q314 482 343 460T386 400L307 361Z" />
<glyph unicode="t" glyph-name="t" horiz-adv-x="240" d="M165 0H75L136 384H87L100 468H149L177 647H267L239 468H327L314 384H226L165 0Z" />
<glyph unicode="u" glyph-name="u" horiz-adv-x="512" d="M222 468L181 209Q176 181 176 156T186 111T214 80T267 68Q300 68 323 79T361 110T384 155T397 209L438 468H528L486 199Q478 151 460 112T414 44T345 0T253 -16Q201 -16 166 -1T112 43T87 111T90 199L132
468H222Z" />
<glyph unicode="v" glyph-name="v" horiz-adv-x="445" d="M250 176L431 468H532L219 -16L61 468H162L250 176Z" />
<glyph unicode="w" glyph-name="w" horiz-adv-x="718" d="M249 170L438 494L524 170L707 468H809L494 -16L407 297L219 -16L58 468H160L249 170Z" />
<glyph unicode="x" glyph-name="x" horiz-adv-x="489" d="M101 468H207L294 317L439 468H548L342 254L503 0H398L274 190L95 0H-14L235 254L101 468Z" />
<glyph unicode="y" glyph-name="y" horiz-adv-x="484" d="M61 468H166L277 171L471 468H572L77 -268H-25L214 80L61 468Z" />
<glyph unicode="z" glyph-name="z" horiz-adv-x="495" d="M494 84L481 0H2L380 384H117L130 468H568L190 84H494Z" />
<glyph unicode="{" glyph-name="braceleft" horiz-adv-x="334" d="M102 344Q143 361 168 399T201 495L230 677Q235 707 248 731T276 773T308 799T336 809H414L401 725H361Q338 725 331 707T320 663L291 479Q284 436 269 405T238 354T208 322T188 307Q192 304 203
293T223 262T238 210T237 136L207 -48Q203 -73 204 -91T229 -110H269L255 -194H177Q166 -194 153 -185T130 -158T114 -117T113 -62L142 120Q151 177 139 215T91 271L102 344Z" />
<glyph unicode="|" glyph-name="bar" horiz-adv-x="570" d="M294 -214H208L366 786H452L294 -214Z" />
<glyph unicode="}" glyph-name="braceright" horiz-adv-x="334" d="M329 271Q288 254 264 216T230 120L201 -62Q196 -92 184 -116T155 -158T123 -184T95 -194H17L31 -110H71Q94 -110 100 -92T111 -48L141 136Q148 179 162 210T193 261T224 293T244 307Q239 310
229 321T208 353T193 405T195 479L224 663Q228 688 227 706T203 725H163L176 809H254Q265 809 278 800T302 773T318 732T318 677L289 495Q281 438 293 400T340 344L329 271Z" />
<glyph unicode="~" glyph-name="asciitilde" horiz-adv-x="578" d="M590 284Q575 263 557 242T517 203T471 174T419 162Q391 162 364 178T312 213T267 248T230 264Q204 264 180 243T125 182L69 227Q85 246 104 268T144 308T190 338T241 350Q278 350 305 334T355
299T395 264T431 248Q460 248 481 272T531 334L590 284Z" />
<glyph unicode="&#x80;" glyph-name="Euro" horiz-adv-x="578" d="M670 644Q638 666 605 675T518 684Q460 684 416 665T338 614T281 542T244 460H601L578 402H227Q224 390 224 388Q224 387 222 376Q220 362 219 352T218 328H541L518 270H219Q221 232 233 196T268
132T329 87T419 70Q442 70 462 72T502 79T542 95T587 120L571 19Q542 5 502 -5T408 -16Q345 -16 293 2T202 55T142 144T120 270H43L66 328H122Q124 342 124 350T127 373Q128 379 128 382T129 388T130 393T133 402H65L88 460H148Q173 538 214 596T306 693T418 751T541
770Q559 770 581 768T625 760T667 747T704 729L670 644Z" />
</font>
</defs>
</svg>
