<?xml version="1.0" standalone="no"?> <!DOCTYPE svg PUBLIC "-//W3C//DTD SVG 1.0//EN" "http://www.w3.org/TR/2001/REC-SVG-20010904/DTD/svg10.dtd" > <svg xmlns="http://www.w3.org/2000/svg" width="100%" height="100%">
<defs >
<font id="futuraltcondensedboldoblique" horiz-adv-x="362" ><font-face
    font-family="Futura LT Condensed"
    units-per-em="1000"
    panose-1="2 0 8 6 4 0 0 2 0 3"
    ascent="990"
    descent="-261"
    alphabetic="0" />
<missing-glyph horiz-adv-x="245" />
<glyph unicode=" " glyph-name="space" horiz-adv-x="245" />
<glyph unicode="!" glyph-name="exclam" horiz-adv-x="246" d="M150 178Q185 178 208 155T231 98Q231 88 230 83Q227 63 217 46T192 16T159 -4T121 -12Q86 -12 63 11T39 69Q39 78 40 83Q43 102 53 119T79 150T112 170T150 178ZM232 226H85L167 754H314L232 226Z" />
<glyph unicode="&quot;" glyph-name="quotedbl" horiz-adv-x="360" d="M106 463L136 754H275L215 463H106ZM289 463L319 754H458L398 463H289Z" />
<glyph unicode="#" glyph-name="numbersign" horiz-adv-x="490" d="M286 432L260 338H333L360 432H286ZM477 238H391L325 0H242L307 238H233L167 0H83L148 238H63L78 338H176L202 432H118L134 532H229L290 754H373L313 532H388L448 754H532L471 532H547L531 432H443L417
338H492L477 238Z" />
<glyph unicode="$" glyph-name="dollar" horiz-adv-x="490" d="M338 831H411L400 760Q448 752 485 732T548 672L452 582Q432 608 407 624T346 640Q308 640 282 621T248 561Q247 557 247 553Q247 550 247 547Q247 516 267 500T313 473Q351 456 386 439T449 398T493
342T510 265Q510 247 507 226Q500 182 481 143T432 72T364 18T280 -12L266 -98H193L207 -12Q153 -4 109 16T32 76L120 187Q147 156 177 132T255 108Q295 108 325 136T362 206Q363 211 363 214Q363 218 363 222Q363 240 357 253T339 277T315 295T286 311Q251 328
218 345T159 386T117 439T101 511Q101 527 104 547Q118 638 177 692T327 760L338 831Z" />
<glyph unicode="%" glyph-name="percent" horiz-adv-x="858" d="M710 313Q696 313 687 300T672 270T662 236T657 210Q656 203 655 190T653 161Q653 141 658 124T678 107Q691 107 700 120T716 150T726 184T731 210Q733 217 734 230T735 259Q735 279 730 296T710
313ZM296 647Q282 647 273 634T257 604T248 570T243 544Q241 537 240 523T238 493Q238 473 243 457T263 441Q276 441 285 454T301 484T311 518T317 544Q318 551 319 564T321 593Q321 613 316 630T296 647ZM778 754L304 0H197L671 754H778ZM728 427Q765 427 790
415T830 382T851 334T857 276Q857 243 851 210Q845 171 832 132T797 63T741 13T660 -7Q623 -7 599 5T559 39T538 87T532 145Q532 161 533 177T537 210Q543 249 556 288T591 357T647 407T728 427ZM314 761Q351 761 375 749T415 715T436 667T442 609Q442 593 441
577T437 544Q431 505 418 466T382 397T326 347T246 327Q209 327 184 339T144 372T123 420T117 478Q117 511 123 544Q129 583 142 622T177 691T233 741T314 761Z" />
<glyph unicode="&amp;" glyph-name="ampersand" horiz-adv-x="590" d="M320 497Q345 509 362 530T385 577V584Q385 598 377 608T353 618Q333 618 318 606T300 573Q300 571 300 568T299 563Q299 545 306 529T320 497ZM253 297Q235 285 222 264T205 223Q204 218
204 214Q204 210 204 205Q204 171 222 148T273 125Q290 125 302 130T328 146L253 297ZM379 44Q347 20 309 5T233 -10Q192 -10 159 4T103 44T68 103T56 175Q56 193 59 213Q69 279 105 326T199 412Q186 441 177 473T168 540Q168 547 168 553T170 568Q176 606 194
636T240 688T301 721T372 733Q402 733 429 725T478 701T511 662T524 607Q524 601 524 595T522 583Q517 551 502 523T466 469T420 421T369 379L445 224Q467 244 489 263T532 306L595 199Q574 178 552 160T506 125L499 120L560 0H402L379 44Z" />
<glyph unicode="&apos;" glyph-name="quotesingle" horiz-adv-x="250" d="M143 463L173 754H312L252 463H143Z" />
<glyph unicode="(" glyph-name="parenleft" horiz-adv-x="300" d="M397 738Q332 636 290 528T230 308Q225 274 222 240T219 173Q219 101 231 31T265 -107L131 -136Q79 7 79 164Q79 200 81 237T90 311Q99 368 115 427T154 544T206 658T272 766L397 738Z" />
<glyph unicode=")" glyph-name="parenright" horiz-adv-x="300" d="M1 -108Q66 -6 108 102T168 322Q173 356 175 389T178 455Q178 528 167 598T133 737L266 766Q319 621 319 466Q319 394 307 319Q298 262 282 203T243 86T191 -28T125 -136L1 -108Z" />
<glyph unicode="*" glyph-name="asterisk" horiz-adv-x="376" d="M339 754L321 635L430 698L453 642L339 584L435 525L394 468L305 533L286 410H222L241 533L128 468L105 525L218 584L123 642L164 698L257 635L275 754H339Z" />
<glyph unicode="+" glyph-name="plus" horiz-adv-x="490" d="M268 499H378L348 311H518L501 201H331L301 7H191L221 201H52L69 311H238L268 499Z" />
<glyph unicode="," glyph-name="comma" horiz-adv-x="245" d="M243 162L44 -144H-55L92 162H243Z" />
<glyph unicode="-" glyph-name="hyphen" horiz-adv-x="318" d="M346 397L325 264H75L96 397H346Z" />
<glyph unicode="." glyph-name="period" horiz-adv-x="245" d="M149 178Q185 178 207 156T230 99Q230 95 230 91Q230 87 229 83Q226 63 216 46T192 16T159 -4T120 -12Q84 -12 61 11T38 69Q38 78 39 83Q42 102 52 119T77 150T110 170T149 178Z" />
<glyph unicode="/" glyph-name="slash" horiz-adv-x="547" d="M664 807L119 -166H5L550 807H664Z" />
<glyph unicode="0" glyph-name="zero" horiz-adv-x="490" d="M343 630Q325 630 310 615T284 575T265 522T251 464T242 413T236 377Q234 367 232 350T226 312T221 267T219 221Q219 181 228 153T264 124Q282 124 297 139T323 179T342 232T355 290T364 341T370 377Q371
387 374 404T380 442T385 487T387 534Q387 573 378 601T343 630ZM364 766Q413 766 444 744T494 685T519 603T526 511Q526 474 523 440T515 377Q510 344 501 302T476 217T440 133T390 59T325 8T243 -12Q194 -12 163 10T113 70T88 152T81 245Q81 281 83 315T91 377Q96
410 106 452T131 537T167 621T217 695T282 746T364 766Z" />
<glyph unicode="1" glyph-name="one" horiz-adv-x="490" d="M444 754L327 0H182L279 624H207L227 754H444Z" />
<glyph unicode="2" glyph-name="two" horiz-adv-x="490" d="M128 492L133 533Q141 585 156 628T199 702T266 750T366 767Q449 767 496 730T543 618Q543 607 542 597T539 574Q530 516 505 468T445 369L282 130H457L437 0H41L259 312Q278 339 300 371T342 436T377
504T397 569Q398 576 398 582T399 596Q399 621 389 641T351 662Q330 662 316 649T292 616T279 576T272 540L266 492H128Z" />
<glyph unicode="3" glyph-name="three" horiz-adv-x="490" d="M201 177Q200 174 200 167Q200 150 211 134T248 118Q271 118 285 128T309 154T322 189T330 225Q333 246 333 262Q333 300 313 315T246 330H233L253 460Q283 460 305 464T343 478T368 508T383 559Q384
566 384 572T385 586Q385 606 377 621T344 636Q328 636 317 629T299 610T288 584T282 558L279 543H150Q155 588 169 628T208 699T271 748T361 766Q442 766 483 724T525 610Q525 590 522 569Q517 542 509 515T486 464T451 421T401 391L400 389Q450 376 471 339T492
254Q492 243 491 232T488 210Q472 106 404 47T231 -12Q149 -12 105 30T60 146Q60 158 61 171T65 198H205L201 177Z" />
<glyph unicode="4" glyph-name="four" horiz-adv-x="490" d="M338 582H336L179 296H293L338 582ZM509 754L438 296H499L481 182H420L392 0H247L275 182H56L73 294L345 754H509Z" />
<glyph unicode="5" glyph-name="five" horiz-adv-x="490" d="M250 754H538L518 624H334L295 502Q393 497 439 448T486 313Q486 299 485 284T481 253Q472 193 449 144T390 61T305 7T192 -12Q152 -12 118 -4T52 22L97 153Q114 137 136 128T184 118Q214 118 237 129T278
160T307 203T322 255Q324 263 324 269Q324 276 324 283Q324 339 288 364T191 389Q177 389 162 387T133 383L250 754Z" />
<glyph unicode="6" glyph-name="six" horiz-adv-x="490" d="M306 367Q285 367 270 352T244 316T227 273T219 237Q216 222 216 200Q216 185 218 170T225 143T239 123T262 115Q283 115 298 130T324 167T339 212T347 249Q350 265 350 291Q350 304 348 318T342 342T328
360T306 367ZM467 754L277 460L279 458Q303 477 326 488T380 499Q414 499 437 484T474 443T493 386T499 323Q499 308 498 294T495 265Q487 214 469 165T420 76T345 13T241 -12Q194 -12 162 4T109 47T80 110T71 186Q71 203 72 219T76 253Q84 304 100 352T138 445T186
536T241 626L323 754H467Z" />
<glyph unicode="7" glyph-name="seven" horiz-adv-x="490" d="M597 754L196 0H41L373 624H170L190 754H597Z" />
<glyph unicode="8" glyph-name="eight" horiz-adv-x="490" d="M291 570Q288 555 288 533Q288 514 294 499T318 484Q335 484 346 493T363 516T373 543T378 569Q379 575 379 581T380 596Q380 615 373 632T344 649Q330 649 321 641T306 620T296 594T291 570ZM296
334Q277 334 263 323T240 294T225 259T217 225Q214 210 214 191Q214 178 216 165T223 142T238 125T263 118Q282 118 296 129T320 157T336 192T344 225Q345 230 345 236T346 250Q346 264 344 279T336 306T321 326T296 334ZM223 408Q182 423 162 457T142 535Q142
550 145 567Q152 609 171 645T218 708T284 750T365 766Q403 766 432 754T482 721T514 670T525 605Q525 586 522 567Q514 513 482 470T394 407V406Q449 387 473 348T498 254Q498 229 494 206Q486 159 464 120T409 51T334 5T244 -12Q202 -12 168 1T109 39T71 96T58
168Q58 186 61 206Q72 279 110 331T223 406V408Z" />
<glyph unicode="9" glyph-name="nine" horiz-adv-x="490" d="M345 637Q324 637 309 622T283 585T268 542T260 505Q259 497 258 487T257 466Q257 452 259 438T266 413T279 394T302 387Q323 387 339 402T365 438T382 481T390 518Q391 525 391 533T392 552Q392 566
390 581T383 608T369 629T346 637H345V637ZM141 0L331 295L329 297Q305 278 282 267T228 255Q193 255 171 271T134 312T115 368T109 432Q109 447 110 461T113 490Q121 541 139 590T188 679T263 742T367 766Q414 766 446 751T499 708T529 645T538 569Q538 535 532
501Q524 450 508 403T470 309T422 219T367 129L285 0H141Z" />
<glyph unicode=":" glyph-name="colon" horiz-adv-x="245" d="M202 515Q238 515 260 492T283 435Q283 425 282 420Q279 400 269 383T244 353T211 333T172 325Q136 325 114 348T91 405Q91 415 92 420Q95 439 105 456T130 487T163 507T202 515ZM149 178Q185 178
207 156T230 99Q230 95 230 91Q230 87 229 83Q226 63 216 46T192 16T159 -4T120 -12Q84 -12 61 11T38 69Q38 78 39 83Q42 102 52 119T77 150T110 170T149 178Z" />
<glyph unicode=";" glyph-name="semicolon" horiz-adv-x="245" d="M203 515Q239 515 261 492T284 435Q284 425 283 420Q280 400 270 383T245 353T212 333T173 325Q137 325 115 348T92 405Q92 415 93 420Q96 439 106 456T131 487T164 507T203 515ZM242 162L44 -144H-55L92
162H242Z" />
<glyph unicode="&lt;" glyph-name="less" horiz-adv-x="490" d="M484 94L467 -17L52 208L68 307L553 534L536 423L180 256L484 94Z" />
<glyph unicode="=" glyph-name="equal" horiz-adv-x="490" d="M486 103H37L54 213H503L486 103ZM516 298H67L84 408H533L516 298Z" />
<glyph unicode="&gt;" glyph-name="greater" horiz-adv-x="490" d="M390 256L87 423L104 534L518 307L502 208L18 -17L35 94L390 256Z" />
<glyph unicode="?" glyph-name="question" horiz-adv-x="454" d="M150 83Q153 102 163 119T189 150T222 170T259 178Q295 178 318 155T341 98Q341 88 340 83Q337 63 327 46T302 16T269 -4T230 -12Q195 -12 172 11T149 69Q149 78 150 83ZM252 546H111Q117 594 134
634T179 703T247 749T337 766Q425 766 470 716T516 587Q516 576 515 565T512 541Q507 510 495 477T464 415T419 365T358 334L342 236H193L223 422Q235 419 247 419Q272 419 290 430T322 458T342 496T353 538Q354 545 355 554T356 572Q356 595 348 615T315 636Q301
636 291 629T273 612T262 589T255 564L252 546Z" />
<glyph unicode="@" glyph-name="at" horiz-adv-x="833" d="M562 373Q567 395 567 412Q567 443 552 464T505 486H498Q474 484 453 473T413 445T383 406T365 360Q361 344 361 327Q361 293 377 275T419 252Q424 251 433 251Q458 251 479 262T517 292T545 331T562
373ZM638 571H736L635 265Q632 257 632 253Q632 243 642 243Q653 243 674 256T716 294T757 351T783 426Q786 440 787 454T788 482Q788 531 770 570T720 637T642 678T540 693Q471 693 409 670T299 605T218 506T175 381Q173 364 172 349T170 319Q170 258 190 210T247
129T338 79T458 61Q518 61 573 87T677 153H773Q705 76 621 32T439 -12Q356 -12 292 11T183 75T115 176T91 307Q91 342 97 381Q103 417 118 459T158 545T220 628T306 698T416 747T554 766Q624 766 682 747T782 693T847 609T870 501Q870 490 869 478T866 454Q856
395 834 350T781 271T718 216T653 181T597 162T559 156Q545 156 534 166T523 195Q523 207 527 218L525 220Q488 190 456 175T393 160Q323 160 286 201T249 306Q249 324 252 342Q259 387 280 429T335 505T410 558T501 578Q541 578 571 564T619 518L638 571Z" />
<glyph unicode="A" glyph-name="A" horiz-adv-x="528" d="M343 446L344 560H342L308 446L245 245H350L343 446ZM457 754L521 0H362L353 127H202L156 0H8L300 754H457Z" />
<glyph unicode="B" glyph-name="B" horiz-adv-x="479" d="M375 540Q376 545 376 550T377 560Q377 592 359 610T306 629H300L271 445Q313 445 340 471T375 540ZM332 229Q333 235 333 240T334 251Q334 286 314 307T257 329H253L221 125H227Q270 125 297 154T332
229ZM53 0L170 754H316Q360 754 397 748T466 713Q493 689 506 653T519 579Q519 561 516 543Q508 492 483 454T411 387Q446 368 463 329T480 246Q480 228 477 212Q468 156 443 116T380 50T296 12T198 0H53Z" />
<glyph unicode="C" glyph-name="C" horiz-adv-x="452" d="M524 612Q495 620 469 620Q420 620 382 600T315 546T270 471T245 385Q243 371 242 358T241 331Q241 294 249 259T276 197T323 152T393 135Q407 135 421 138T451 146L429 5Q396 -8 358 -8Q288 -8 236 17T149
86T97 187T80 308Q80 345 86 384Q97 454 130 522T213 643T330 730T472 763Q509 763 546 749L524 612Z" />
<glyph unicode="D" glyph-name="D" horiz-adv-x="530" d="M229 134Q272 134 304 158T358 218T394 295T413 372Q415 389 417 407T419 444Q419 476 414 507T394 564T357 604T298 620L222 134H229ZM53 0L170 754H283Q286 754 294 754T313 755Q332 755 358 752T413
740T470 712T520 663T557 586T571 476Q571 429 562 371Q549 290 522 222T450 105T339 28T186 0H53Z" />
<glyph unicode="E" glyph-name="E" horiz-adv-x="392" d="M470 754L449 614H298L272 450H405L383 310H250L223 140H376L355 0H53L170 754H470Z" />
<glyph unicode="F" glyph-name="F" horiz-adv-x="394" d="M471 754L450 614H298L272 453H409L387 313H250L202 0H53L170 754H471Z" />
<glyph unicode="G" glyph-name="G" horiz-adv-x="563" d="M602 420L593 361Q587 321 577 278T550 194T510 115T456 49T384 5T293 -12Q231 -12 190 12T123 77T87 169T76 275Q76 300 78 324T84 373Q94 438 117 507T179 634T276 729T414 766Q500 766 548 717T608
587L455 531Q455 545 453 562T445 593T427 618T394 628H389Q353 628 327 599T284 529T257 446T243 377Q240 355 237 326T233 265Q233 239 236 214T250 170T276 138T319 126Q347 126 367 142T400 183T421 233T431 280H336L358 420H602Z" />
<glyph unicode="H" glyph-name="H" horiz-adv-x="555" d="M319 754L273 459H424L470 754H619L502 0H353L402 319H251L202 0H53L170 754H319Z" />
<glyph unicode="I" glyph-name="I" horiz-adv-x="255" d="M319 754L202 0H53L170 754H319Z" />
<glyph unicode="J" glyph-name="J" horiz-adv-x="352" d="M342 244Q339 229 335 204T322 151T299 93T260 41T203 3T122 -12Q94 -12 65 -7T13 11L37 160Q48 142 66 130T108 118Q134 118 149 130T173 162T186 203T193 244L272 754H421L342 244Z" />
<glyph unicode="K" glyph-name="K" horiz-adv-x="513" d="M319 754L267 417H269L445 754H597L404 406L498 0H341L264 384H262L202 0H53L170 754H319Z" />
<glyph unicode="L" glyph-name="L" horiz-adv-x="373" d="M319 754L223 140H379L358 0H53L170 754H319Z" />
<glyph unicode="M" glyph-name="M" horiz-adv-x="722" d="M402 754L406 309H408L537 754H737L699 0H546L594 543H592L539 357L420 0H305L288 361L289 529L291 543H289L183 0H23L206 754H402Z" />
<glyph unicode="N" glyph-name="N" horiz-adv-x="573" d="M313 754L428 299L431 301Q430 309 430 318T429 336Q429 356 431 375T436 415L489 754H638L521 0H380L267 455L264 453L259 377L256 346L202 0H53L170 754H313Z" />
<glyph unicode="O" glyph-name="O" horiz-adv-x="582" d="M243 377Q241 360 238 331T234 270Q234 244 237 218T249 172T272 139T310 126Q335 126 354 140T389 178T416 229T435 285T448 337T455 377Q458 397 461 427T465 489Q465 515 462 540T450 584T427 616T389
628Q364 628 345 614T310 578T283 528T264 472T251 419T243 377ZM410 766Q452 766 491 751T559 703T606 618T624 492Q624 466 622 438T614 377Q597 271 563 197T485 77T390 9T289 -12Q247 -12 208 3T140 51T93 136T75 263Q75 314 84 377Q101 483 135 557T214 677T309
745T410 766Z" />
<glyph unicode="P" glyph-name="P" horiz-adv-x="487" d="M269 432H279Q329 432 359 455T398 533Q399 540 399 546T400 559Q400 591 384 611T328 631H300L269 432ZM53 0L170 754H325H349Q372 754 406 750T473 728T528 677T551 582Q551 570 550 558T547 531Q539
478 516 437T459 368T380 324T283 309L250 311L202 0H53Z" />
<glyph unicode="Q" glyph-name="Q" horiz-adv-x="582" d="M419 232Q433 264 441 299T455 377Q458 397 461 427T465 489Q465 515 462 540T450 584T427 616T389 628Q364 628 345 614T310 578T283 528T264 472T251 419T243 377Q241 360 238 331T234 270Q234 244 237
218T249 172T272 139T310 126Q329 126 348 139L274 232L363 307L419 232ZM572 45L482 -29L434 34Q367 -12 289 -12Q247 -12 208 3T140 51T93 136T75 263Q75 314 84 377Q101 483 135 557T214 677T309 745T410 766Q452 766 491 751T559 703T606 618T624 492Q624 466
622 438T614 377Q604 310 582 239T517 111L572 45Z" />
<glyph unicode="R" glyph-name="R" horiz-adv-x="530" d="M269 430L295 429Q346 429 372 459T407 537Q408 542 408 548T409 559Q409 590 391 610T329 631H320H300L269 430ZM53 0L170 754H320Q353 754 394 750T471 730T531 680T556 586Q556 561 552 538Q542 475
509 425T414 343L492 0H335L258 348H256L202 0H53Z" />
<glyph unicode="S" glyph-name="S" horiz-adv-x="440" d="M454 584Q434 604 409 618T353 632Q318 632 295 613T267 558Q266 553 266 543Q266 518 279 498T312 460T355 424T398 383T431 331T444 261Q444 244 441 223Q433 173 412 130T359 56T284 6T188 -12Q156
-12 123 -3T66 26L88 168Q111 150 136 139T195 128Q231 128 259 150T293 210Q294 215 294 225Q294 243 288 256T271 280T249 300T223 320Q173 357 144 397T115 498Q115 509 116 520T119 544Q126 589 145 629T193 699T262 748T350 766Q386 766 417 757T477 729L454
584Z" />
<glyph unicode="T" glyph-name="T" horiz-adv-x="414" d="M516 754L495 614H377L281 0H132L228 614H111L132 754H516Z" />
<glyph unicode="U" glyph-name="U" horiz-adv-x="544" d="M315 754L239 266Q236 249 233 230T230 191Q230 163 242 143T291 123Q318 123 334 132T360 157T373 193T382 234L463 754H612L526 204Q521 174 511 137T474 66T399 11T269 -12Q176 -12 126 26T75 147Q75
171 79 194L166 754H315Z" />
<glyph unicode="V" glyph-name="V" horiz-adv-x="565" d="M285 754L319 392Q324 360 324 327Q324 295 326 263H328Q339 296 348 328T371 394L518 754H674L348 0H226L125 754H285Z" />
<glyph unicode="W" glyph-name="W" horiz-adv-x="793" d="M277 754L285 394V384Q285 346 282 309T276 234H278Q289 274 300 314T325 394L456 754H574L589 234H591Q601 274 609 313T631 392L746 754H902L629 0H500L485 398Q486 409 486 421Q486 433 486 444Q486
467 486 490T485 536H483Q472 501 462 467T438 398L290 0H160L125 754H277Z" />
<glyph unicode="X" glyph-name="X" horiz-adv-x="545" d="M307 754L334 649Q339 621 344 592T352 534H354Q365 563 378 591T406 649L467 754H628L410 389L523 0H350L320 120Q314 149 311 176T305 233H303Q290 204 278 177T252 120L190 0H22L242 389L139 754H307Z" />
<glyph unicode="Y" glyph-name="Y" horiz-adv-x="514" d="M285 754L331 549L337 512H339L364 568L460 754H627L390 361L334 0H185L241 361L121 754H285Z" />
<glyph unicode="Z" glyph-name="Z" horiz-adv-x="508" d="M610 754L256 140H493L472 0H18L365 614H146L167 754H610Z" />
<glyph unicode="[" glyph-name="bracketleft" horiz-adv-x="320" d="M421 754L406 656H285L178 -26H301L286 -124H33L170 754H421Z" />
<glyph unicode="\" glyph-name="backslash" horiz-adv-x="250" d="M112 807L353 -166H239L-1 807H112Z" />
<glyph unicode="]" glyph-name="bracketright" horiz-adv-x="320" d="M384 754L247 -124H-5L9 -26H132L239 656H118L133 754H384Z" />
<glyph unicode="^" glyph-name="asciicircum" horiz-adv-x="490" d="M79 377L302 754H422L528 377L421 330L342 621L172 330L79 377Z" />
<glyph unicode="_" glyph-name="underscore" horiz-adv-x="500" d="M488 -75L480 -125H-19L-11 -75H488Z" />
<glyph unicode="`" glyph-name="grave" horiz-adv-x="300" d="M344 610L269 570L161 708L270 754L344 610Z" />
<glyph unicode="a" glyph-name="a" horiz-adv-x="433" d="M237 119Q254 119 266 136T287 177T300 222T307 255Q309 264 311 281T313 318Q313 345 306 367T278 390Q260 390 248 373T227 334T213 289T206 255Q204 245 202 228T200 191Q200 164 207 142T237 119ZM266
57H264Q245 28 220 9T161 -10Q130 -10 110 6T79 47T63 105T58 168Q58 192 60 214T65 253Q68 275 74 302T90 359T114 417T146 466T187 501T241 515Q276 515 296 495T325 443H327L336 505H477L399 0H258L266 57Z" />
<glyph unicode="b" glyph-name="b" horiz-adv-x="433" d="M233 119Q251 119 264 135T285 174T298 220T305 255Q307 264 309 281T311 318Q311 345 304 367T277 390Q259 390 246 373T225 333T212 288T205 255Q203 247 202 229T200 191Q200 164 206 142T233 119ZM161
807H302L245 443H247Q264 474 290 494T352 515Q383 515 402 501T433 463T449 411T454 351Q454 324 452 299T446 253Q443 233 437 206T420 149T396 92T364 41T322 4T269 -10Q234 -10 215 9T186 57H184L176 0H35L161 807Z" />
<glyph unicode="c" glyph-name="c" horiz-adv-x="315" d="M293 8Q251 -10 209 -10Q167 -10 139 6T92 50T67 113T59 185Q59 202 60 217T64 249Q71 297 89 344T136 430T206 491T302 515Q337 515 370 500L350 376Q335 392 312 392Q286 392 268 378T237 344T217 300T207
257Q205 246 204 234T203 209Q203 192 206 177T216 149T235 130T268 122Q290 122 313 137L293 8Z" />
<glyph unicode="d" glyph-name="d" horiz-adv-x="433" d="M237 119Q254 119 266 136T287 177T300 222T307 255Q309 264 311 281T313 318Q313 345 306 367T278 390Q260 390 248 373T227 334T213 289T206 255Q204 245 202 228T200 191Q200 164 207 142T237 119ZM266
57H264Q245 28 220 9T161 -10Q130 -10 110 6T79 47T63 105T58 168Q58 192 60 214T65 253Q68 275 74 302T90 359T114 417T146 466T187 501T241 515Q276 515 296 495T325 443H327L384 807H525L399 0H258L266 57Z" />
<glyph unicode="e" glyph-name="e" horiz-adv-x="414" d="M315 314Q316 321 317 329T318 346Q318 369 310 388T278 407Q262 407 251 398T231 374T219 345T212 317L210 302H313L315 314ZM418 215H195Q193 204 192 189T190 158Q190 135 197 117T230 98Q257 98 268
115T284 156H404Q394 121 378 91T340 39T287 3T218 -10Q174 -10 144 5T94 46T67 106T58 178Q58 194 59 210T63 242Q70 287 87 335T132 424T201 489T297 515Q326 515 351 504T396 472T427 420T438 346Q438 329 437 311T430 273L418 215Z" />
<glyph unicode="f" glyph-name="f" horiz-adv-x="299" d="M149 505L172 647Q178 683 187 714T216 768T265 804T343 817Q359 817 373 814T402 805L381 669Q375 673 370 675T357 677Q340 677 331 669T316 648T308 621T305 595L290 505H355L337 389H272L212 0H71L131
389H79L97 505H149Z" />
<glyph unicode="g" glyph-name="g" horiz-adv-x="437" d="M238 119Q255 119 267 136T288 177T300 222T307 255Q309 264 311 282T313 321Q313 347 306 368T279 390Q261 390 248 373T227 334T213 289T206 255Q204 245 202 228T200 192Q200 178 201 165T207 142T219
126T238 119ZM145 -67Q144 -72 144 -75Q144 -79 144 -84Q144 -105 152 -122T185 -139Q209 -139 222 -124T243 -86T254 -41T260 -1L270 63H268Q250 35 227 13T166 -10Q127 -10 104 16T70 74Q63 94 60 117T57 164Q57 184 59 204T64 245Q67 267 73 295T89 354T113
413T145 464T188 501T242 515Q277 515 298 495T328 444H330L339 505H480L395 -44Q377 -155 321 -203T173 -251Q92 -251 55 -212T18 -100Q18 -92 18 -84T20 -67H145Z" />
<glyph unicode="h" glyph-name="h" horiz-adv-x="424" d="M302 807L242 427H244Q264 463 298 489T375 515Q398 515 413 508T436 489T448 460T452 426Q452 401 448 375T440 326L390 0H249L292 277Q294 287 297 303T300 335Q300 350 295 361T272 373Q248 373 238
354T225 315L176 0H35L161 807H302Z" />
<glyph unicode="i" glyph-name="i" horiz-adv-x="209" d="M192 565Q159 565 138 587T116 642Q116 651 117 656Q120 675 130 691T154 720T186 738T223 745Q256 745 276 722T297 667Q297 659 296 654Q293 636 284 620T260 592T228 572T192 565ZM253 505L175 0H34L112
505H253Z" />
<glyph unicode="j" glyph-name="j" horiz-adv-x="209" d="M192 565Q159 565 138 587T116 642Q116 651 117 656Q120 675 130 691T154 720T186 738T223 745Q256 745 276 722T297 667Q297 659 296 654Q293 636 284 620T260 592T228 572T192 565ZM253 505L136 -249H-4L112
505H253Z" />
<glyph unicode="k" glyph-name="k" horiz-adv-x="440" d="M302 807L227 328H229L333 505H486L340 299L433 0H278L214 234H212L176 0H35L161 807H302Z" />
<glyph unicode="l" glyph-name="l" horiz-adv-x="210" d="M302 807L176 0H35L161 807H302Z" />
<glyph unicode="m" glyph-name="m" horiz-adv-x="639" d="M243 424H245Q268 461 303 488T383 515Q422 515 439 490T457 429H459Q482 463 517 489T593 515Q615 515 629 508T651 488T663 460T666 426Q666 406 664 386T658 349L604 0H463L505 274Q507 284 510 300T513
334Q513 351 508 362T486 374Q474 374 466 369T452 355T443 336T439 317L390 0H249L293 283Q295 292 297 307T300 336Q300 351 295 361T274 372Q248 372 238 353T225 314L176 0H35L113 505H254L243 424Z" />
<glyph unicode="n" glyph-name="n" horiz-adv-x="424" d="M242 427H244Q264 463 298 489T375 515Q398 515 413 508T436 489T448 460T452 426Q452 401 448 375T440 326L390 0H249L292 277Q294 287 297 303T300 335Q300 350 295 361T272 373Q248 373 238 354T225
315L176 0H35L113 505H254L242 427Z" />
<glyph unicode="o" glyph-name="o" horiz-adv-x="436" d="M278 388Q260 388 247 371T226 331T212 286T206 252Q204 243 202 226T200 189Q200 162 207 139T236 116Q254 116 267 133T288 173T301 218T308 252Q310 261 311 278T313 316Q313 343 306 365T278 388ZM298
515Q343 515 373 500T421 460T447 401T455 330Q455 291 449 252Q441 204 425 157T382 73T314 13T216 -10Q171 -10 141 4T93 44T67 103T59 174Q59 213 65 252Q72 300 88 347T132 432T200 492T298 515Z" />
<glyph unicode="p" glyph-name="p" horiz-adv-x="433" d="M233 119Q252 119 265 135T286 174T298 220T305 255Q307 264 309 281T311 318Q311 345 304 367T277 390Q259 390 246 373T225 333T212 288T205 255Q203 247 202 229T200 191Q200 164 206 142T233 119ZM245
443H247Q264 474 290 494T352 515Q383 515 402 501T433 463T449 411T454 351Q454 324 452 299T446 253Q443 233 437 206T420 149T396 92T364 41T322 4T269 -10Q234 -10 215 9T186 57H184L137 -249H-3L113 505H254L245 443Z" />
<glyph unicode="q" glyph-name="q" horiz-adv-x="433" d="M237 119Q254 119 266 136T287 177T300 222T307 255Q309 264 311 281T313 318Q313 345 306 367T278 390Q260 390 248 373T227 334T213 289T206 255Q204 245 202 228T200 191Q200 164 207 142T237 119ZM360
-249H219L266 57H264Q245 28 220 9T161 -10Q130 -10 110 6T79 47T63 105T58 168Q58 192 60 214T65 253Q68 275 74 302T90 359T114 417T146 466T187 501T241 515Q276 515 296 495T325 443H327L336 505H477L360 -249Z" />
<glyph unicode="r" glyph-name="r" horiz-adv-x="315" d="M254 505L245 444H247Q272 477 302 498T374 524L353 387Q348 388 343 388T331 389Q296 389 275 378T242 349T225 305T215 252L176 0H35L113 505H254Z" />
<glyph unicode="s" glyph-name="s" horiz-adv-x="376" d="M346 369Q333 383 319 392T283 402Q264 402 253 392T240 365V361Q240 342 260 330T306 303T351 264T372 195Q372 188 372 181Q372 175 370 167Q364 129 348 97T308 41T252 4T180 -10Q139 -10 102 6T37
48L115 148Q129 134 143 125T179 115Q196 115 210 126T227 157Q227 159 227 160T228 164Q228 177 218 187T194 205T162 224T131 249T106 284T96 336Q96 350 99 367Q105 403 123 430T167 477T225 505T291 515Q329 515 360 505T419 472L346 369Z" />
<glyph unicode="t" glyph-name="t" horiz-adv-x="308" d="M320 645L298 505H356L338 389H280L220 0H79L139 389H90L108 505H157L179 645H320Z" />
<glyph unicode="u" glyph-name="u" horiz-adv-x="423" d="M254 505L211 228Q209 217 206 199T202 163Q202 146 208 134T231 122Q245 122 253 130T266 150T273 175T277 197L326 505H466L416 183Q402 95 351 43T206 -10Q161 -10 133 1T88 32T65 77T59 130Q59 148
61 166T66 202L113 505H254Z" />
<glyph unicode="v" glyph-name="v" horiz-adv-x="452" d="M233 505L257 228V220H259L278 272L369 505H515L291 0H160L93 505H233Z" />
<glyph unicode="w" glyph-name="w" horiz-adv-x="694" d="M230 505L252 209H254L366 505H487L505 209H507L526 263L623 505H757L539 0H423L403 171L396 317H394L340 156L276 0H158L93 505H230Z" />
<glyph unicode="x" glyph-name="x" horiz-adv-x="489" d="M266 505L294 428L305 397L378 505H524L359 272L466 0H317L264 139L168 0H23L210 272L120 505H266Z" />
<glyph unicode="y" glyph-name="y" horiz-adv-x="452" d="M235 505L257 301L260 217H262L373 505H515L181 -249H42L163 10L93 505H235Z" />
<glyph unicode="z" glyph-name="z" horiz-adv-x="401" d="M456 505L240 117H379L361 0H23L243 388H99L117 505H456Z" />
<glyph unicode="{" glyph-name="braceleft" horiz-adv-x="300" d="M218 -124Q146 -124 119 -100T92 -25Q92 -12 93 1T97 31L119 169Q122 188 122 205Q122 237 109 256T61 275L72 351Q94 351 110 360T137 384T154 418T164 457L189 619Q200 687 232 720T333 754H420L409
678Q384 678 367 671T339 650T322 618T313 578L292 446Q284 391 263 359T190 315L189 313Q227 306 240 282T254 224Q254 211 253 198T249 171L231 52Q228 34 228 18Q228 -10 242 -29T295 -48L283 -124H218Z" />
<glyph unicode="|" glyph-name="bar" horiz-adv-x="250" d="M302 786L146 -214H36L192 786H302Z" />
<glyph unicode="}" glyph-name="braceright" horiz-adv-x="300" d="M-22 -124L-10 -48Q15 -48 31 -40T59 -18T76 14T85 52L103 171Q107 196 113 219T132 262T162 295T207 313L208 315Q170 324 156 345T142 399Q142 410 143 421T146 446L167 578Q170 597 170 614Q170
643 156 660T103 678L114 754H201Q258 754 282 732T307 662Q307 652 306 642T303 619L278 457Q275 440 275 425Q275 395 288 373T336 351L325 275Q281 275 261 245T233 169L211 31Q205 -8 195 -37T166 -85T117 -114T42 -124H-22Z" />
<glyph unicode="~" glyph-name="asciitilde" horiz-adv-x="490" d="M514 286Q499 266 484 245T451 207T413 180T367 169Q344 169 319 179T269 202T224 224T191 235Q176 235 163 227T140 207T120 181T101 153L56 227Q70 248 86 270T121 310T162 339T208 351Q232
351 257 341T305 318T348 296T385 285Q399 285 410 292T432 311T452 335T470 359L514 286Z" />
<glyph unicode="&#x80;" glyph-name="Euro" horiz-adv-x="490" d="M471 283H281Q286 252 298 224T329 175T377 141T441 128Q463 128 486 134L465 -1Q451 -5 438 -6T410 -8Q344 -8 294 15T208 78T154 171T131 283H69L87 349H131Q132 357 133 365T135 383L138 400H87L105
466H156Q177 524 213 577T297 671T402 736T524 760Q544 760 560 758T598 751L562 619Q540 624 519 624Q480 624 447 612T386 578T339 527T304 466H521L503 400H283L281 384Q279 375 278 367T277 349H489L471 283Z" />
</font>
</defs>
</svg>
