<?xml version="1.0" standalone="no"?> <!DOCTYPE svg PUBLIC "-//W3C//DTD SVG 1.0//EN" "http://www.w3.org/TR/2001/REC-SVG-20010904/DTD/svg10.dtd" > <svg xmlns="http://www.w3.org/2000/svg" width="100%" height="100%">
<defs >
<font id="futuraltboldoblique" horiz-adv-x="531" ><font-face
    font-family="Futura LT Book"
    units-per-em="1000"
    panose-1="2 0 8 3 4 0 0 9 0 3"
    ascent="1040"
    descent="-264"
    alphabetic="0" />
<missing-glyph horiz-adv-x="500" d="M442 8V504H58V8H442ZM50 512H450V0H50V512Z" />
<glyph unicode=" " glyph-name="space" horiz-adv-x="343" />
<glyph unicode="!" glyph-name="exclam" horiz-adv-x="384" d="M217 754H406L328 256H139L217 754ZM226 214Q250 214 270 205T303 180T322 143T324 97T308 52T277 15T236 -10T189 -20Q165 -20 145 -11T112 14T92 51T90 97T106 142T137 180T179 205T226 214Z" />
<glyph unicode="&quot;" glyph-name="quotedbl" horiz-adv-x="500" d="M572 754L493 423H377L402 754H572ZM336 754L257 423H141L166 754H336Z" />
<glyph unicode="#" glyph-name="numbersign" horiz-adv-x="686" d="M332 286H434L480 410H376L332 286ZM486 726L415 523H516L587 726H692L621 523H701L683 410H585L541 286H635L617 173H499L439 0H333L393 173H292L232 0H126L186 173H95L113 286H226L270 410H174L192
523H309L380 726H486Z" />
<glyph unicode="$" glyph-name="dollar" horiz-adv-x="686" d="M188 238Q203 222 221 207T262 180T307 161T355 154Q371 154 388 158T421 172T447 195T461 227Q464 248 453 261T422 284T374 302T319 322Q292 333 266 348T222 385T195 440T193 518Q200 562 221
603T274 676T347 729T434 753L453 874H546L527 753Q574 748 619 735T700 695L603 550Q580 572 549 585T483 599Q450 599 422 586T389 543Q386 526 394 513T417 491T447 476T475 465Q515 451 552 435T615 394T653 334T657 246Q649 193 628 153T575 84T501 34T408
2L389 -123H296L314 -4Q281 -4 250 2T189 21Q160 33 132 48T82 87L188 238Z" />
<glyph unicode="%" glyph-name="percent" horiz-adv-x="975" d="M791 259Q773 259 757 253T727 235T705 208T693 174Q687 139 708 115T764 90Q782 90 798 96T828 114T851 141T863 174Q868 209 847 234T791 259ZM807 359Q849 359 884 348T944 313T980 255T984 176Q977
130 956 96T902 38T831 2T748 -10Q705 -10 670 2T610 37T576 95T572 176Q579 221 601 255T654 312T725 347T807 359ZM874 754L317 0H219L776 754H874ZM330 664Q312 664 296 658T266 640T244 613T232 579Q226 544 247 520T303 495Q321 495 337 501T367 519T390 546T402
579Q407 614 386 639T330 664ZM346 764Q388 764 423 753T483 718T519 660T523 581Q516 535 495 501T442 443T371 407T288 395Q245 395 209 407T149 442T115 500T111 581Q118 626 140 660T193 717T264 752T346 764Z" />
<glyph unicode="&amp;" glyph-name="ampersand" horiz-adv-x="848" d="M549 70Q486 32 416 6T277 -20Q228 -20 187 -6T116 36T74 104T69 196Q76 238 93 270T135 327T193 371T264 406L284 414L271 436Q264 448 257 461T244 490T236 525T238 567Q245 616 271 654T333
719T415 760T505 774Q550 774 590 760T659 720T702 656T708 569Q702 534 687 507T650 458T599 420T539 388L619 288Q651 313 680 339T735 395L829 289L718 187L707 178L848 0H603L549 70ZM469 479Q497 493 522 516T553 571Q558 600 544 620T499 641Q473 641 452
624T426 579Q424 565 427 552T437 525T452 501T469 479ZM362 315Q349 307 335 298T309 278T288 254T277 225Q274 208 280 195T296 174T321 161T351 156Q379 156 407 164T461 187L362 315Z" />
<glyph unicode="&apos;" glyph-name="quotesingle" horiz-adv-x="250" d="M329 754L250 423H134L159 754H329Z" />
<glyph unicode="(" glyph-name="parenleft" horiz-adv-x="352" d="M418 728Q379 678 349 623T295 510T256 392T231 274Q223 220 220 160T221 40T239 -76T275 -178L156 -240Q125 -189 108 -124T84 11T81 152T94 286Q104 348 123 415T171 549T237 677T319 790L418 728Z" />
<glyph unicode=")" glyph-name="parenright" horiz-adv-x="352" d="M283 790Q312 739 329 678T354 550T360 416T348 286Q338 223 319 152T272 11T206 -124T120 -240L21 -178Q58 -133 88 -77T142 40T182 160T207 274Q216 332 219 391T218 509T200 623T164 728L283 790Z" />
<glyph unicode="*" glyph-name="asterisk" horiz-adv-x="483" d="M405 754L383 647L481 703L514 627L411 577L497 525L440 450L361 507L349 406H259L281 506L188 452L155 528L253 578L168 629L226 705L304 650L315 754H405Z" />
<glyph unicode="+" glyph-name="plus" horiz-adv-x="686" d="M349 513H499L471 332H652L628 182H447L418 0H268L297 182H116L140 332H321L349 513Z" />
<glyph unicode="," glyph-name="comma" horiz-adv-x="343" d="M353 191L117 -141H0L182 191H353Z" />
<glyph unicode="-" glyph-name="hyphenminus" horiz-adv-x="392" d="M402 396L378 246H92L116 396H402Z" />
<glyph unicode="." glyph-name="period" horiz-adv-x="343" d="M206 214Q230 214 250 205T283 180T302 143T304 97T288 52T257 15T216 -10T169 -20Q145 -20 125 -11T92 14T72 51T70 97T86 142T117 180T159 205T206 214Z" />
<glyph unicode="/" glyph-name="slash" horiz-adv-x="579" d="M683 830L155 -93H12L540 830H683Z" />
<glyph unicode="0" glyph-name="zero" horiz-adv-x="686" d="M440 611Q402 611 374 585T325 522T294 445T278 378Q275 360 274 336T273 285T279 234T295 188T323 156T366 143Q404 143 432 169T480 233T511 310T528 378Q532 405 533 445T526 522T498 585T440 611ZM467
784Q551 784 606 748T691 654T728 523T723 377Q711 303 681 231T603 100T489 6T338 -30Q254 -30 199 6T115 100T78 230T83 377Q95 450 125 523T203 654T317 748T467 784Z" />
<glyph unicode="1" glyph-name="one" horiz-adv-x="686" d="M254 588L280 754H584L465 0H269L362 588H254Z" />
<glyph unicode="2" glyph-name="two" horiz-adv-x="686" d="M665 166L639 0H33L394 335Q413 353 432 374T467 419T494 468T509 520Q512 538 509 555T496 587T473 609T439 618Q399 618 374 591T342 526Q341 518 341 510T340 494H124Q137 559 166 612T240 704T340
763T464 784Q523 784 573 765T657 712T707 627T713 516Q707 475 694 443T660 382T613 327T553 275L418 166H665Z" />
<glyph unicode="3" glyph-name="three" horiz-adv-x="686" d="M158 537Q174 597 203 642T275 719T368 767T477 784Q528 784 569 770T639 728T679 659T683 565Q676 520 651 477T580 410Q609 402 629 382T660 336T674 280T673 220Q663 158 631 112T553 34T452 -14T340
-30Q275 -30 221 -11T129 55Q115 72 103 94T82 142T71 194T73 245H273Q269 222 273 203T290 169T320 147T361 138Q406 138 440 165T482 239Q485 260 480 278T462 310T433 332T394 340Q385 340 376 338T359 334L380 465H400Q438 465 465 487T499 548Q504 583 486
603T434 624Q396 624 371 599T340 537H158Z" />
<glyph unicode="4" glyph-name="four" horiz-adv-x="686" d="M476 596H474L252 306H430L476 596ZM703 306L680 156H589L564 0H382L407 156H41L61 281L426 754H683L612 306H703Z" />
<glyph unicode="5" glyph-name="five" horiz-adv-x="689" d="M397 588L371 502L433 507Q491 511 537 492T613 435T655 347T658 237Q648 177 615 124T528 33Q477 -3 416 -16T298 -30Q233 -30 173 -14T63 38L121 223Q159 184 209 160T318 136Q341 136 364 144T406
166T438 201T455 247Q461 281 450 305T418 345T369 368T311 376Q273 376 236 369T162 345L292 754H684L658 588H397Z" />
<glyph unicode="6" glyph-name="six" horiz-adv-x="686" d="M358 124Q384 124 407 134T450 161T481 200T498 249Q502 274 497 296T478 336T444 362T397 372Q371 372 347 363T304 336T271 297T253 249Q249 223 255 201T276 161T311 134T358 124ZM647 754L393 499L395
497Q422 508 448 514T503 520Q558 520 599 498T666 439T701 355T703 255Q692 186 657 133T572 43T460 -11T334 -30Q279 -30 224 -15T130 35Q90 73 71 128T61 242Q75 324 122 401T230 542L425 754H647Z" />
<glyph unicode="7" glyph-name="seven" horiz-adv-x="686" d="M164 588L190 754H809L257 0H42L479 588H164Z" />
<glyph unicode="8" glyph-name="eight" horiz-adv-x="686" d="M467 784Q515 784 559 771T635 731T683 664T690 569Q685 539 672 512T640 463T596 424T544 398V396Q608 373 641 323T662 198Q653 139 620 97T540 26T440 -16T338 -30Q289 -30 241 -17T155 25T97 96T86
198Q98 273 147 323T268 396V398Q244 407 225 423T193 462T176 512T176 569Q185 623 213 663T281 730T370 770T467 784ZM393 317Q355 317 325 290T288 223Q285 204 289 187T304 158T330 138T364 131Q383 131 400 138T432 157T455 187T468 223T467 259T453 289T427
309T393 317ZM446 648Q429 648 413 642T383 624T361 597T349 563Q344 528 364 503T419 478Q436 478 452 484T482 502T503 529T515 563Q521 598 501 623T446 648Z" />
<glyph unicode="9" glyph-name="nine" horiz-adv-x="686" d="M448 629Q422 629 399 620T356 593T324 554T307 505T308 457T327 417T361 391T408 381Q434 381 458 390T502 417T535 456T553 505T551 553T531 593T495 619T448 629ZM158 0L413 254L412 256Q384 245
358 239T302 233Q246 233 205 255T139 314T104 399T102 499Q113 568 148 621T233 711T344 765T471 784Q498 784 526 781T582 769T633 749T676 719Q716 682 734 627T744 511Q738 470 722 430T683 352T633 279T575 211L381 0H158Z" />
<glyph unicode=":" glyph-name="colon" horiz-adv-x="343" d="M259 551Q283 551 303 542T336 517T356 480T358 434T342 389T311 352T269 327T222 317Q198 317 178 326T145 351T126 388T124 434T140 479T171 517T212 542T259 551ZM206 214Q230 214 250 205T283
180T302 143T304 97T288 52T257 15T216 -10T169 -20Q145 -20 125 -11T92 14T72 51T70 97T86 142T117 180T159 205T206 214Z" />
<glyph unicode=";" glyph-name="semicolon" horiz-adv-x="343" d="M305 551Q329 551 349 542T382 517T402 480T404 434T388 389T357 352T315 327T268 317Q244 317 224 326T191 351T172 388T170 434T186 479T217 517T258 542T305 551ZM339 191L103 -141H-14L168 191H339Z" />
<glyph unicode="&lt;" glyph-name="less" horiz-adv-x="686" d="M149 317L667 499L643 349L355 258V256L614 165L590 15L130 197L149 317Z" />
<glyph unicode="=" glyph-name="equal" horiz-adv-x="686" d="M633 212L609 62H97L121 212H633ZM671 452L647 302H135L159 452H671Z" />
<glyph unicode="&gt;" glyph-name="greater" horiz-adv-x="686" d="M619 197L101 15L125 165L414 256V258L154 349L178 499L638 317L619 197Z" />
<glyph unicode="?" glyph-name="question" horiz-adv-x="595" d="M315 214Q339 214 359 205T392 180T411 143T413 97T397 52T366 15T325 -10T278 -20Q254 -20 234 -11T201 14T181 51T179 97T195 142T226 180T268 205T315 214ZM257 446Q279 441 298 441Q319 441
343 447T388 465T424 496T443 540Q448 571 431 593T381 615Q346 615 325 593T299 539H100Q109 596 139 640T212 713T307 758T412 774Q460 774 502 759T577 712T626 635T635 539Q628 497 609 463T561 401T496 355T420 323L409 252H226L257 446Z" />
<glyph unicode="@" glyph-name="at" horiz-adv-x="740" d="M591 310Q588 301 584 289T578 267T579 250T593 244Q606 245 625 260T662 300T695 354T718 418Q731 481 719 530T676 612T597 663T492 680Q429 680 373 658T273 595T199 499T159 377Q148 308 162 252T210
157T297 96T413 74Q476 74 524 86T598 114L670 48Q613 21 542 1T390 -20Q309 -20 243 10T133 93T70 218T65 377Q78 462 119 534T221 660T355 743T510 774Q576 774 632 753T731 687Q775 642 796 584T806 453Q796 390 771 335T710 240Q666 192 622 171T542 152Q521
153 506 169T489 210Q466 187 432 170T352 152Q319 152 291 166T244 206T216 265T214 338Q221 384 242 427T296 504T368 558T456 579Q494 579 523 564T569 517L587 570H682L591 310ZM336 354Q330 317 345 290T397 262Q420 262 438 272T471 298T494 333T509 372Q521
415 505 442T452 469Q431 469 412 459T376 433T350 396T336 354Z" />
<glyph unicode="A" glyph-name="A" horiz-adv-x="781" d="M476 521H474L355 281H518L476 521ZM277 131L204 0H-4L405 754H619L784 0H575L547 131H277Z" />
<glyph unicode="B" glyph-name="B" horiz-adv-x="677" d="M333 458H355Q374 458 393 460T429 470T456 492T472 531Q476 557 468 571T445 593T410 602T370 604H356L333 458ZM64 0L183 754H463Q513 754 553 744T618 710T654 650T656 558Q648 507 624 467T549 404V402Q628
391 656 340T672 210Q663 151 633 111T561 46T469 11T366 0H64ZM284 150H309Q331 150 358 151T410 159T453 182T477 230Q483 264 470 281T433 305T381 312Q353 312 329 312H309L284 150Z" />
<glyph unicode="C" glyph-name="C" horiz-adv-x="660" d="M682 501Q659 542 617 563T523 584Q478 584 439 568T368 524T317 457T289 375Q282 330 291 293T322 228T380 186T461 170Q509 170 557 191T643 250L605 15Q554 0 514 -10T427 -20Q348 -20 280 8T161 91Q107
148 90 219T86 376Q98 454 137 525T240 652Q305 709 386 741T547 774Q595 774 636 764T720 736L682 501Z" />
<glyph unicode="D" glyph-name="D" horiz-adv-x="752" d="M286 166H330Q374 166 415 178T490 216T548 282T581 377Q589 428 579 467T545 533T484 574T399 588H353L286 166ZM183 754H461Q540 754 605 725T714 645T777 525T785 377Q772 297 731 229T629 109T495
29T342 0H64L183 754Z" />
<glyph unicode="E" glyph-name="E" horiz-adv-x="550" d="M353 588L333 462H554L528 296H307L286 166H519L493 0H64L183 754H612L586 588H353Z" />
<glyph unicode="F" glyph-name="F" horiz-adv-x="542" d="M353 588L333 462H548L522 296H307L260 0H64L183 754H616L590 588H353Z" />
<glyph unicode="G" glyph-name="G" horiz-adv-x="842" d="M883 421Q875 380 867 342T844 266T810 194T758 123Q690 45 605 10T424 -25Q335 -25 266 4T152 85T89 211T85 373Q100 465 141 540T245 668T387 750T558 779Q675 779 754 727T865 568L667 490Q655 544
619 577T523 610Q475 610 435 589T364 534T315 458T289 372Q282 328 288 286T314 210T369 157T451 136Q515 136 564 168T629 267H469L494 421H883Z" />
<glyph unicode="H" glyph-name="H" horiz-adv-x="803" d="M616 463L662 754H858L739 0H543L592 309H309L260 0H64L183 754H379L333 463H616Z" />
<glyph unicode="I" glyph-name="I" horiz-adv-x="324" d="M260 0H64L183 754H379L260 0Z" />
<glyph unicode="J" glyph-name="J" horiz-adv-x="489" d="M548 754L468 245Q459 185 436 137T375 53T289 -1T176 -20Q113 -20 69 9T-1 91L131 210Q145 187 162 167T200 146Q222 146 235 157T256 186T267 222T274 257L352 754H548Z" />
<glyph unicode="K" glyph-name="K" horiz-adv-x="758" d="M618 754H861L505 397L769 0H515L314 327H312L260 0H64L183 754H379L330 443H332L618 754Z" />
<glyph unicode="L" glyph-name="L" horiz-adv-x="495" d="M286 166H521L495 0H64L183 754H379L286 166Z" />
<glyph unicode="M" glyph-name="M" horiz-adv-x="983" d="M266 754H459L549 351L774 754H969L964 0H768L782 434H780L530 0H452L348 434H346L214 0H19L266 754Z" />
<glyph unicode="N" glyph-name="N" horiz-adv-x="881" d="M183 754H379L665 293H667L740 754H936L817 0H621L335 462H333L260 0H64L183 754Z" />
<glyph unicode="O" glyph-name="O" horiz-adv-x="887" d="M536 589Q492 589 451 573T376 529T321 465T292 390Q284 341 294 300T329 229T389 182T469 165Q513 165 554 182T629 229T686 300T718 390Q724 429 713 465T677 528T616 572T536 589ZM566 779Q647 779
718 751T839 671T912 548T922 391Q907 299 864 223T757 92T611 6T439 -25Q348 -25 277 5T158 91T92 223T88 391Q97 448 121 499T180 593T259 670T354 729T458 766T566 779Z" />
<glyph unicode="P" glyph-name="P" horiz-adv-x="661" d="M325 408H358Q385 408 410 409T457 419T493 446T513 500Q519 536 511 555T484 584T441 594T387 596H354L325 408ZM183 754H483Q544 754 592 740T671 695T715 618T718 506Q697 372 619 311T411 250H300L260
0H64L183 754Z" />
<glyph unicode="Q" glyph-name="Q" horiz-adv-x="887" d="M703 -47L654 24Q606 -2 553 -13T439 -25Q348 -25 277 5T158 91T92 223T88 391Q97 448 121 499T180 593T259 670T354 729T458 766T566 779Q654 779 725 751T845 669T913 542T919 375Q908 300 873 235T780
110L887 -19L703 -47ZM663 263Q684 287 697 316T715 374Q722 416 712 455T677 524T617 571T537 589Q493 589 452 573T377 529T321 465T292 390Q284 341 294 300T329 229T390 182T470 165Q502 165 532 175L430 295L618 318L663 263Z" />
<glyph unicode="R" glyph-name="R" horiz-adv-x="680" d="M326 416H345Q369 416 394 419T440 432T476 460T496 510T492 559T464 588T423 601T375 604H356L326 416ZM691 0H447L308 290H306L260 0H64L183 754H476Q532 754 577 741T654 699T698 626T702 522Q696 483
680 448T638 384T578 336T503 309L691 0Z" />
<glyph unicode="S" glyph-name="S" horiz-adv-x="616" d="M567 560Q543 583 512 596T445 610Q431 610 416 606T387 594T363 575T351 547Q348 530 355 519T374 499T400 485T426 475L474 460Q511 448 542 432T595 391T625 334T627 254Q618 197 593 143T517 51T408
-3T292 -20Q220 -20 156 2T40 66L149 224Q181 192 220 169T311 146Q328 146 346 150T379 164T404 187T418 222Q421 243 411 257T384 281T348 297T313 308Q269 321 234 335T175 373T143 431T143 521Q152 578 179 625T245 705T335 756T443 774Q500 774 561 758T669
712L567 560Z" />
<glyph unicode="T" glyph-name="T" horiz-adv-x="533" d="M364 0H168L261 588H99L125 754H645L619 588H457L364 0Z" />
<glyph unicode="U" glyph-name="U" horiz-adv-x="778" d="M837 754L770 330Q764 294 757 258T737 188T703 123T649 64Q622 41 590 25T523 -1T454 -15T386 -20Q353 -20 320 -16T255 -1T196 25T149 64Q125 91 115 122T102 188T102 258T112 330L179 754H375L313 357Q307
320 304 284T309 218T342 170T413 152Q460 152 489 170T537 217T564 283T579 357L641 754H837Z" />
<glyph unicode="V" glyph-name="V" horiz-adv-x="761" d="M427 296L682 754H895L454 0H302L104 754H317L427 296Z" />
<glyph unicode="W" glyph-name="W" horiz-adv-x="1117" d="M362 267H364L599 754H755L826 267H828L1047 754H1251L891 0H691L628 437H626L409 0H210L104 754H308L362 267Z" />
<glyph unicode="X" glyph-name="X" horiz-adv-x="789" d="M165 754H406L491 559L636 754H877L581 403L796 0H560L441 246L229 0H-8L351 403L165 754Z" />
<glyph unicode="Y" glyph-name="Y" horiz-adv-x="714" d="M100 754H335L444 549L617 754H852L512 362L455 0H259L316 362L100 754Z" />
<glyph unicode="Z" glyph-name="Z" horiz-adv-x="707" d="M683 166L657 0H11L461 588H165L191 754H815L367 166H683Z" />
<glyph unicode="[" glyph-name="bracketleft" horiz-adv-x="350" d="M170 -134H277L260 -240H14L177 790H423L406 684H299L170 -134Z" />
<glyph unicode="\" glyph-name="backslash" horiz-adv-x="579" d="M302 830L552 0H410L158 830H302Z" />
<glyph unicode="]" glyph-name="bracketright" horiz-adv-x="350" d="M267 684H160L177 790H423L260 -240H14L31 -134H138L267 684Z" />
<glyph unicode="^" glyph-name="asciicircum" horiz-adv-x="686" d="M167 407L407 784H527L647 407L523 340L439 609L271 340L167 407Z" />
<glyph unicode="_" glyph-name="underscore" horiz-adv-x="500" d="M-20 -125L-12 -75H488L480 -125H-20Z" />
<glyph unicode="`" glyph-name="grave" horiz-adv-x="402" d="M316 820L430 648L339 589L192 740L316 820Z" />
<glyph unicode="a" glyph-name="a" horiz-adv-x="682" d="M621 0H439L448 57H446Q416 19 370 1T279 -17Q222 -17 178 5T106 64T66 152T64 257T99 361T165 448T256 508T364 530Q409 530 449 514T512 463L520 513H702L621 0ZM387 372Q359 372 336 363T296 338T267
301T252 256Q244 207 269 174T350 141Q406 141 442 174T486 256Q490 280 486 301T468 337T435 362T387 372Z" />
<glyph unicode="b" glyph-name="b" horiz-adv-x="682" d="M406 372Q378 372 355 363T315 338T286 301T271 256Q263 207 288 174T369 141Q425 141 461 174T505 256Q509 280 505 301T487 337T454 362T406 372ZM185 830H367L309 463Q344 497 389 513T479 530Q536
530 580 508T652 449T691 362T693 257Q684 201 657 152T590 65T499 5T390 -17Q345 -17 306 1T247 57H245L236 0H54L185 830Z" />
<glyph unicode="c" glyph-name="c" horiz-adv-x="483" d="M485 346Q467 361 445 371T397 382Q371 382 347 373T303 346T270 307T252 257Q243 201 273 166T360 131Q384 131 410 140T456 166L432 12Q400 -3 366 -10T299 -17Q242 -17 195 3T115 59T68 144T63 251Q73
313 103 364T177 452T278 509T394 530Q459 530 509 500L485 346Z" />
<glyph unicode="d" glyph-name="d" horiz-adv-x="682" d="M394 372Q366 372 343 363T303 338T274 301T259 256Q251 207 276 174T357 141Q413 141 449 174T493 256Q497 280 493 301T475 337T442 362T394 372ZM455 57H453Q423 19 377 1T286 -17Q229 -17 185 5T113
64T73 152T71 257T106 361T172 448T263 508T371 530Q416 530 456 514T519 463L577 830H759L628 0H446L455 57Z" />
<glyph unicode="e" glyph-name="e" horiz-adv-x="610" d="M623 226H240Q231 170 255 141T336 112Q365 112 388 122T430 159H605Q587 114 556 81T487 26T404 -6T316 -17Q252 -17 201 1T115 53T67 139T63 256Q73 320 102 371T174 457T272 511T390 530Q457 530 506
510T585 453T625 364T626 245L623 226ZM470 331Q469 368 443 390T380 412Q340 412 307 392T259 331H470Z" />
<glyph unicode="f" glyph-name="f" horiz-adv-x="388" d="M260 0H78L135 363H71L95 513H159L170 578Q174 605 179 628T192 673T214 716T250 758Q290 798 340 819T442 840Q463 840 481 836T517 822L492 665Q478 672 464 677T431 682Q396 682 379 661T354 596L341
513H468L444 363H317L260 0Z" />
<glyph unicode="g" glyph-name="g" horiz-adv-x="677" d="M390 376Q362 376 339 367T298 342T269 305T254 260Q246 211 271 178T353 145Q409 145 444 178T488 260Q492 284 488 305T471 341T438 366T390 376ZM631 50Q618 -32 589 -90T516 -185T414 -239T285 -256Q241
-256 194 -245T109 -209T46 -148T24 -60H228Q230 -74 237 -83T256 -99Q278 -111 306 -111Q343 -111 367 -100T408 -69T433 -22T447 36L451 60Q409 25 368 8T276 -10Q220 -10 177 10T105 65T67 148T65 252T101 358T168 447T261 507T372 530Q417 530 454 514T512
459H514L522 513H704L631 50Z" />
<glyph unicode="h" glyph-name="h" horiz-adv-x="661" d="M373 830L313 448H315Q353 490 395 510T492 530Q541 530 574 515T627 471T652 403T651 314L601 0H419L461 263Q464 285 465 307T460 346T440 374T398 385Q371 385 351 375T318 347T296 307T284 263L242
0H60L191 830H373Z" />
<glyph unicode="i" glyph-name="i" horiz-adv-x="302" d="M280 812Q301 812 318 804T346 782T363 750T365 710T351 671T324 638T288 616T247 608Q226 608 209 616T180 638T163 670T161 710T175 749T203 782T239 804T280 812ZM242 0H60L141 513H323L242 0Z" />
<glyph unicode="j" glyph-name="j" horiz-adv-x="302" d="M280 812Q301 812 318 804T346 782T363 750T365 710T351 671T324 638T288 616T247 608Q226 608 209 616T180 638T163 670T161 710T175 749T203 782T239 804T280 812ZM201 -256H19L141 513H323L201 -256Z" />
<glyph unicode="k" glyph-name="k" horiz-adv-x="688" d="M294 328L512 513H761L467 276L696 0H441L275 209L242 0H60L191 830H373L294 328Z" />
<glyph unicode="l" glyph-name="l" horiz-adv-x="302" d="M242 0H60L191 830H373L242 0Z" />
<glyph unicode="m" glyph-name="m" horiz-adv-x="989" d="M313 449H315Q354 492 397 511T490 530Q546 530 587 507T649 432Q684 480 735 505T839 530Q888 530 919 515T966 473T985 409T982 327L930 0H748L787 245Q790 265 793 289T793 335T776 370T734 385Q702
385 683 372T652 338T634 293T625 245L586 0H404L443 245Q446 266 449 291T448 338T430 374T385 389Q355 389 336 375T306 339T290 292T281 245L242 0H60L141 513H323L313 449Z" />
<glyph unicode="n" glyph-name="n" horiz-adv-x="661" d="M313 447H315Q354 494 396 512T492 530Q544 530 578 515T630 471T653 404T651 317L601 0H419L459 250Q462 268 465 291T465 336T447 371T398 385Q370 385 350 376T317 350T296 312T284 266L242 0H60L141
513H323L313 447Z" />
<glyph unicode="o" glyph-name="o" horiz-adv-x="662" d="M390 372Q362 372 339 363T299 338T270 301T255 256Q247 207 272 174T353 141Q409 141 445 174T489 256Q493 280 489 301T471 337T438 362T390 372ZM415 530Q477 530 530 512T620 459T674 373T681 256Q670
191 637 140T556 54T449 1T328 -17Q266 -17 213 1T124 54T70 139T63 256Q73 322 106 373T187 459T294 512T415 530Z" />
<glyph unicode="p" glyph-name="p" horiz-adv-x="682" d="M406 372Q378 372 355 363T315 338T286 301T271 256Q263 207 288 174T369 141Q425 141 461 174T505 256Q509 280 505 301T487 337T454 362T406 372ZM308 455H310Q341 493 386 511T477 530Q534 530 578
508T651 448T690 360T692 255Q683 199 657 150T591 64T500 5T392 -17Q347 -17 308 -1T244 49L195 -256H13L135 513H317L308 455Z" />
<glyph unicode="q" glyph-name="q" horiz-adv-x="682" d="M394 372Q366 372 343 363T303 338T274 301T259 256Q251 207 276 174T357 141Q413 141 449 174T493 256Q497 280 493 301T475 337T442 362T394 372ZM587 -256H405L454 49Q420 15 375 -1T284 -17Q227 -17
183 4T111 63T72 150T70 255Q79 310 106 359T173 447T265 507T373 530Q418 530 458 512T516 455H518L527 513H709L587 -256Z" />
<glyph unicode="r" glyph-name="r" horiz-adv-x="453" d="M310 429H312Q346 477 392 498T492 520H527L500 345Q483 356 465 359T425 362Q387 362 361 350T318 318T290 269T275 207L242 0H60L141 513H323L310 429Z" />
<glyph unicode="s" glyph-name="s" horiz-adv-x="513" d="M459 381Q440 392 414 399T365 406Q357 406 347 404T328 398T311 388T303 371Q301 358 309 350T329 338T355 331T378 326Q409 320 434 309T477 279T501 236T503 174Q495 123 468 87T403 28T320 -6T230
-17Q175 -17 125 -2T33 42L119 169Q131 159 147 150T182 134T219 122T255 117Q264 117 274 119T293 126T309 138T318 156Q320 171 312 179T288 193T253 203T213 213Q192 219 173 227T141 251T121 290T120 348Q127 395 152 429T213 486T290 519T375 530Q419 530
460 523T539 497L459 381Z" />
<glyph unicode="t" glyph-name="t" horiz-adv-x="360" d="M259 0H77L134 363H75L99 513H158L183 667H365L340 513H443L419 363H316L259 0Z" />
<glyph unicode="u" glyph-name="u" horiz-adv-x="659" d="M320 513L277 239Q273 215 273 195T281 159T305 136T350 128Q378 128 397 136T428 159T448 194T459 239L502 513H684L635 204Q625 141 598 99T529 31T437 -6T327 -17Q269 -17 221 -6T141 30T94 98T89 204L138
513H320Z" />
<glyph unicode="v" glyph-name="v" horiz-adv-x="623" d="M352 250L515 513H719L370 0H254L66 513H270L352 250Z" />
<glyph unicode="w" glyph-name="w" horiz-adv-x="996" d="M352 235L525 513H633L718 235L891 513H1092L743 0H625L543 281L371 0H253L66 513H268L352 235Z" />
<glyph unicode="x" glyph-name="x" horiz-adv-x="712" d="M114 513H345L420 407L529 513H764L515 278L727 0H488L380 152L224 0H-15L285 278L114 513Z" />
<glyph unicode="y" glyph-name="y" horiz-adv-x="654" d="M66 513H276L372 250L547 513H754L221 -256H17L244 70L66 513Z" />
<glyph unicode="z" glyph-name="z" horiz-adv-x="559" d="M552 151L528 0H8L306 362H97L121 513H633L336 151H552Z" />
<glyph unicode="{" glyph-name="braceleft" horiz-adv-x="352" d="M88 331Q95 331 107 331T132 336T154 352T167 384L207 637Q213 677 230 706T268 753T309 781T344 790H441L422 670H397Q380 670 370 665T354 651T346 632T342 611L306 386Q301 354 288 334T257
303T223 287T193 280V278Q204 276 220 273T249 258T269 224T270 161L235 -61Q233 -72 233 -82T235 -101T246 -115T272 -120H297L278 -240H181Q167 -240 150 -231T117 -204T94 -157T92 -89L132 164Q136 190 130 203T114 221T91 227Q79 227 72 227L88 331Z" />
<glyph unicode="|" glyph-name="bar" horiz-adv-x="579" d="M331 -214H181L339 786H489L331 -214Z" />
<glyph unicode="}" glyph-name="braceright" horiz-adv-x="352" d="M352 227Q344 227 332 227Q321 227 309 222T287 203T272 164L232 -89Q226 -128 209 -156T171 -203T129 -231T95 -240H-2L17 -120H42Q59 -120 69 -115T85 -102T93 -83T97 -61L132 161Q138 201
152 223T184 257T218 272T247 278V280Q236 282 221 287T192 303T171 334T168 386L204 611Q205 621 206 632T204 651T193 664T167 670H142L161 790H258Q271 790 289 781T322 754T345 706T347 637L307 384Q304 363 310 352T326 337T348 332T368 331L352 227Z" />
<glyph unicode="~" glyph-name="asciitilde" horiz-adv-x="686" d="M681 276Q664 254 643 227T596 176T541 136T481 120Q444 120 417 136T366 168Q351 178 337 188T311 206T286 220T263 226Q253 226 243 218T222 196T201 169T184 142L87 238Q106 257 128 284T175
336T229 378T288 395Q319 395 350 378T407 339Q428 320 456 305T507 289Q517 289 528 298T549 321T568 348T582 373L681 276Z" />
<glyph unicode="&#x80;" glyph-name="Euro" horiz-adv-x="689" d="M809 723L734 549Q713 567 669 583Q625 598 587 598Q442 598 373 472H700L669 396H345Q343 391 343 386T340 375Q337 355 337 335H644L608 259H347Q385 140 517 140Q531 140 549 143T590 153Q636
166 667 183L637 -4Q573 -30 486 -30Q339 -30 248 50Q161 127 151 259H46L82 335H152Q153 345 154 355T157 376L160 396H68L104 472H182Q232 608 345 687Q457 768 607 768Q661 768 714 758Q784 746 809 723Z" />
</font>
</defs>
</svg>
