<?xml version="1.0" standalone="no"?> <!DOCTYPE svg PUBLIC "-//W3C//DTD SVG 1.0//EN" "http://www.w3.org/TR/2001/REC-SVG-20010904/DTD/svg10.dtd" > <svg xmlns="http://www.w3.org/2000/svg" width="100%" height="100%">
<defs >
<font id="futuraltcondensedmedium" horiz-adv-x="307" ><font-face
    font-family="Futura LT Condensed"
    units-per-em="1000"
    panose-1="2 0 6 6 5 0 0 2 0 3"
    ascent="969"
    descent="-216"
    alphabetic="0" />
<missing-glyph horiz-adv-x="205" />
<glyph unicode=" " glyph-name="space" horiz-adv-x="205" />
<glyph unicode="!" glyph-name="exclam" horiz-adv-x="252" d="M126 -8Q101 -8 84 9T66 52Q66 77 83 94T126 112Q151 112 168 95T186 52Q186 27 169 10T126 -8ZM177 754V181H77V754H177Z" />
<glyph unicode="&quot;" glyph-name="quotedbl" horiz-adv-x="250" d="M148 754H234L222 528H160L148 754ZM17 754H103L91 528H29L17 754Z" />
<glyph unicode="#" glyph-name="numbersign" horiz-adv-x="411" d="M229 317L267 441H179L142 317H229ZM68 258H-39L-22 317H86L124 441H15L32 500H141L220 754H275L197 500H285L362 754H418L340 500H451L434 441H322L284 317H396L381 258H266L187 0H132L211 258H124L43
0H-12L68 258Z" />
<glyph unicode="$" glyph-name="dollar" horiz-adv-x="411" d="M227 819V754Q282 750 320 723T373 643L296 597Q290 629 266 649T208 670Q185 670 170 663T144 642T130 610T126 572Q126 541 135 520T161 482T199 451T246 421Q281 399 307 380T349 338T374 285T382
211Q382 171 375 135T350 71T302 24T227 0V-67H182V0Q122 5 88 32T35 114L118 154Q127 121 147 103T203 84Q227 84 243 93T268 118T282 154T286 197Q286 229 279 249T258 284T225 311T183 338Q145 361 117 382T69 429T40 487T30 567Q30 603 39 635T67 693T114 734T182
754V819H227Z" />
<glyph unicode="%" glyph-name="percent" horiz-adv-x="553" d="M149 465Q166 465 174 480T186 515T189 554Q189 574 189 584Q189 593 189 613Q189 633 186 653T175 688T149 703Q132 703 124 688T112 653T109 613Q109 593 109 584Q109 574 109 554Q109 535 112
515T123 480T149 465ZM403 289Q386 289 378 274T366 240T363 200Q363 180 363 171Q363 161 363 141Q363 121 366 101T377 66T403 51Q420 51 428 66T440 101T443 141Q443 161 443 171Q443 180 443 200Q443 220 440 239T429 274T403 289ZM494 754L120 0H58L432 754H494ZM403
349Q440 349 461 332T493 287T507 229T510 170Q510 143 507 112T494 54T462 9T403 -9Q366 -9 345 9T313 53T299 111T296 170Q296 197 299 228T312 287T344 331T403 349ZM149 763Q186 763 207 746T239 701T253 643T256 584Q256 557 253 526T240 468T208 423T149
405Q112 405 91 423T59 467T45 525T42 584Q42 611 45 642T58 701T90 745T149 763Z" />
<glyph unicode="&amp;" glyph-name="ampersand" horiz-adv-x="494" d="M204 441Q217 454 229 467T252 496T269 528T276 565Q276 591 262 608T221 625Q195 625 179 604T162 559Q162 527 176 498T204 441ZM178 302Q152 275 137 248T121 182Q121 162 127 143T144
109T170 85T206 76Q232 76 250 90T282 128L178 302ZM324 59Q301 26 267 8T194 -10Q158 -10 127 5T74 47T38 107T25 178Q25 208 33 236T56 289T90 336T130 380Q105 418 88 464T70 557Q70 588 80 614T110 660T155 690T214 701Q277 701 317 666T358 565Q358 534 348
507T323 455T287 408T246 366L345 202L407 290L471 238L391 126L471 0H360L324 59Z" />
<glyph unicode="&apos;" glyph-name="quotesingle" horiz-adv-x="250" d="M82 754H168L156 528H94L82 754Z" />
<glyph unicode="(" glyph-name="parenleft" horiz-adv-x="276" d="M223 741Q187 646 162 542T136 338Q136 230 160 121T223 -89L130 -113Q87 -7 64 106T41 332Q41 443 63 552T130 764L223 741Z" />
<glyph unicode=")" glyph-name="parenright" horiz-adv-x="276" d="M235 332Q235 219 212 106T146 -113L53 -89Q92 12 116 121T140 338Q140 438 115 542T53 741L146 764Q191 661 213 552T235 332Z" />
<glyph unicode="*" glyph-name="asterisk" horiz-adv-x="357" d="M196 754V621L307 691L328 657L212 591L328 527L307 493L196 560L200 431H157L161 563L52 493L29 527L142 591L29 651L48 687L161 621L157 754H196Z" />
<glyph unicode="+" glyph-name="plus" horiz-adv-x="500" d="M215 507H285V291H457V221H285V2H215V221H44V291H215V507Z" />
<glyph unicode="," glyph-name="comma" horiz-adv-x="205" d="M157 81L60 -184L9 -170L76 106L157 81Z" />
<glyph unicode="-" glyph-name="hyphen" horiz-adv-x="242" d="M210 297V221H32V297H210Z" />
<glyph unicode="." glyph-name="period" horiz-adv-x="205" d="M103 -8Q78 -8 61 9T43 53Q43 77 60 94T103 112Q128 112 145 95T163 53Q163 27 146 10T103 -8Z" />
<glyph unicode="/" glyph-name="slash" horiz-adv-x="407" d="M437 830L52 -103H-29L358 830H437Z" />
<glyph unicode="0" glyph-name="zero" horiz-adv-x="411" d="M279 377Q279 436 278 489T269 584T247 649T206 673Q180 673 166 649T144 584T135 490T133 377Q133 318 134 265T143 170T165 105T206 81Q232 81 246 105T268 170T277 264T279 377ZM206 763Q251 763
281 743T330 689T359 615T373 530T377 447Q377 407 377 377Q377 347 377 307Q377 267 373 224T359 140T330 65T281 12T206 -9Q161 -9 131 11T82 65T53 139T39 224T35 307Q35 347 35 377Q35 407 35 447Q35 487 39 530T53 614T82 689T131 742T206 763Z" />
<glyph unicode="1" glyph-name="one" horiz-adv-x="411" d="M255 754V0H157V667H83V754H255Z" />
<glyph unicode="2" glyph-name="two" horiz-adv-x="411" d="M47 536Q47 581 51 622T72 694T121 744T208 763Q301 763 338 714T376 577Q376 535 363 486T331 388T289 293T246 209L182 87H369V0H37L220 387Q240 433 257 482T274 583Q274 598 271 614T260 643T239
664T207 673Q181 673 169 655T153 613T148 565T149 529V509H47V536Z" />
<glyph unicode="3" glyph-name="three" horiz-adv-x="411" d="M153 347V437H165Q197 437 217 443T248 463T264 498T268 552Q268 567 267 588T261 627T244 659T210 673Q190 673 179 664T161 639T153 607T151 575V552H55V559Q55 602 60 639T80 703T126 747T207 763Q254
763 284 748T332 707T357 645T364 568Q364 542 362 514T352 462T327 418T280 390V388Q311 380 329 363T357 321T370 270T373 214Q373 169 365 129T338 58T285 9T200 -9Q114 -9 78 36T41 166V189H137V165Q137 149 140 134T150 107T170 88T200 81Q227 81 241 96T262
132T270 178T271 222Q271 246 268 269T256 309T229 337T182 347H153Z" />
<glyph unicode="4" glyph-name="four" horiz-adv-x="411" d="M232 601H230L108 281H232V601ZM330 281H378V207H330V0H232V207H29V293L232 754H330V281Z" />
<glyph unicode="5" glyph-name="five" horiz-adv-x="411" d="M361 754V667H198L174 477Q225 479 262 464T323 421T359 353T371 265Q371 213 361 164T325 77T260 15T159 -9Q126 -9 99 -1T42 22L68 111Q91 99 110 90T156 81Q189 81 211 98T245 140T263 194T269 249Q269
282 262 309T239 355T198 386T138 397Q123 397 108 395T77 388L121 754H361Z" />
<glyph unicode="6" glyph-name="six" horiz-adv-x="411" d="M266 226Q266 243 266 268T260 317T242 357T207 374Q201 374 191 373T171 358T153 314T145 227Q145 211 146 186T153 138T171 98T207 81Q228 81 240 97T258 137T265 185T266 226ZM304 754L157 432L159
430Q176 445 194 454T236 464Q283 464 309 440T349 380T365 303T368 227Q368 183 364 141T343 66T294 12T206 -9Q150 -9 118 14T69 75T48 157T43 246Q43 323 55 386T87 509T136 628T196 754H304Z" />
<glyph unicode="7" glyph-name="seven" horiz-adv-x="411" d="M375 754L146 0H38L248 667H38V754H375Z" />
<glyph unicode="8" glyph-name="eight" horiz-adv-x="411" d="M206 453Q224 453 235 466T252 497T259 535T261 568Q261 581 260 599T253 634T236 661T206 673Q187 673 176 662T159 634T152 600T150 568Q150 555 151 536T159 498T176 466T206 453ZM205 81Q227 81
239 94T258 127T265 169T267 207Q267 223 267 248T260 297T242 338T205 355Q181 355 169 338T152 298T146 249T145 207Q145 191 146 169T154 128T172 95T205 81ZM132 410Q105 419 89 437T64 478T52 527T49 578Q49 617 56 651T80 709T126 748T199 763Q246 763 277
751T327 716T354 658T362 578Q362 554 359 528T348 478T323 437T280 409V408Q310 400 327 381T354 336T366 281T369 226Q369 183 364 141T341 66T291 12T206 -9Q155 -9 124 10T74 59T50 130T43 212Q43 240 44 271T54 329T81 378T132 408V410Z" />
<glyph unicode="9" glyph-name="nine" horiz-adv-x="411" d="M205 377Q229 377 242 394T260 436T265 485T266 527Q266 543 265 568T258 616T240 656T205 673Q182 673 170 656T153 614T147 563T146 521Q146 504 147 480T153 433T170 394T205 377ZM102 0L252 315L250
317Q233 301 216 294T174 287Q130 287 105 308T66 362T48 433T44 506Q44 550 48 595T67 678T115 739T205 763Q262 763 294 740T343 679T364 597T368 507Q368 445 360 393T338 291T302 194T255 90L211 0H102Z" />
<glyph unicode=":" glyph-name="colon" horiz-adv-x="205" d="M103 392Q78 392 61 409T43 453Q43 477 60 494T103 512Q128 512 145 495T163 453Q163 427 146 410T103 392ZM103 -8Q78 -8 61 9T43 53Q43 77 60 94T103 112Q128 112 145 95T163 53Q163 27 146 10T103 -8Z" />
<glyph unicode=";" glyph-name="semicolon" horiz-adv-x="205" d="M103 392Q78 392 61 409T43 453Q43 477 60 494T103 512Q128 512 145 495T163 453Q163 427 146 410T103 392ZM158 81L62 -184L10 -170L77 106L158 81Z" />
<glyph unicode="&lt;" glyph-name="less" horiz-adv-x="500" d="M44 286L457 518V445L122 254L457 63V-10L44 222V286Z" />
<glyph unicode="=" glyph-name="equal" horiz-adv-x="500" d="M457 124H44V194H457V124ZM457 314H44V384H457V314Z" />
<glyph unicode="&gt;" glyph-name="greater" horiz-adv-x="500" d="M457 222L44 -10V63L379 254L44 445V518L457 286V222Z" />
<glyph unicode="?" glyph-name="question" horiz-adv-x="341" d="M166 -8Q141 -8 124 9T106 52Q106 77 123 94T166 112Q191 112 208 95T226 52Q226 27 209 10T166 -8ZM123 178V405L146 404Q173 404 188 414T210 442T218 482T220 527Q220 540 220 565Q220 591 217
616T203 659T171 678Q153 678 145 669T132 645T128 614Q128 598 128 586V568H34V580Q34 617 38 650T55 709T95 749T167 764Q219 764 249 745T294 695T312 623T316 538Q316 510 314 475T303 409T272 358T211 338V178H123Z" />
<glyph unicode="@" glyph-name="at" horiz-adv-x="800" d="M334 211Q372 211 402 241T454 313T487 400T499 474Q499 503 481 523T431 543Q391 543 359 519T305 458T271 381T259 304Q259 267 277 239T334 211ZM560 588H629L525 279Q521 268 517 253T512 227Q512
214 520 206T542 197Q564 197 593 213T647 262T689 340T707 445Q707 506 683 554T619 635T527 685T416 702Q345 702 286 676T184 606T116 501T92 373Q92 305 117 247T187 145T290 77T418 52Q497 52 569 84T686 181H749Q725 137 689 102T610 41T517 3T418 -10Q335
-10 263 20T139 104T56 229T28 381Q28 460 59 530T143 652T267 734T419 764Q488 764 552 740T664 674T742 572T771 441Q771 395 753 343T703 247T627 173T528 144Q502 144 476 156T440 197Q417 173 384 160T319 146Q286 146 260 158T216 191T187 240T177 299Q177
350 195 404T247 504T326 579T430 608Q466 608 497 591T545 540L560 588Z" />
<glyph unicode="A" glyph-name="A" horiz-adv-x="414" d="M245 334L207 608H205L145 225H265L245 334ZM247 754L409 0H308L280 147H130L102 0H4L168 754H247Z" />
<glyph unicode="B" glyph-name="B" horiz-adv-x="418" d="M262 556Q262 578 258 598T244 635T216 660T173 669H156V422Q191 420 212 429T244 457T258 500T262 556ZM156 85Q189 83 210 91T243 114T260 154T265 209Q265 240 261 265T245 307T212 334T156 342V85ZM61
0V754H186Q237 754 270 741T324 701T352 638T360 552Q360 524 357 498T343 449T314 410T265 385V383Q297 373 317 356T350 316T366 265T371 206Q371 102 328 51T181 0H61Z" />
<glyph unicode="C" glyph-name="C" horiz-adv-x="369" d="M353 651Q338 659 322 664T289 670Q254 670 230 655T191 614T166 556T153 491T149 427T148 372Q148 334 151 285T169 191T212 115T293 84Q324 84 353 99V11Q334 -1 315 -5T273 -10Q222 -10 185 7T123 52T81
118T57 197T45 282T42 365Q42 403 44 447T54 535T77 621T117 694T178 745T266 764Q292 764 311 760T353 742V651Z" />
<glyph unicode="D" glyph-name="D" horiz-adv-x="466" d="M319 364Q319 393 319 427Q319 462 316 497T304 564T278 620T232 657T161 669V85Q223 83 255 108T302 174T317 265T319 364ZM173 754Q202 754 232 752T291 738T343 702T386 635T414 526T425 364Q425 277
416 216T388 115T345 52T286 17T214 3T130 0H61V754H173Z" />
<glyph unicode="E" glyph-name="E" horiz-adv-x="347" d="M330 754V667H161V430H312V343H161V87H330V0H61V754H330Z" />
<glyph unicode="F" glyph-name="F" horiz-adv-x="342" d="M332 754V667H161V430H315V343H161V0H61V754H332Z" />
<glyph unicode="G" glyph-name="G" horiz-adv-x="460" d="M422 398V386Q422 350 422 307T420 219T408 134T378 61T325 10T242 -10Q175 -10 136 20T75 102T48 225T42 375Q42 454 47 524T72 648T130 733T233 764Q273 764 303 754T355 725T392 676T417 610L322 571Q318
590 313 607T299 639T274 661T236 670Q205 670 188 650T161 591T150 499T148 376Q148 278 155 220T175 132T203 93T236 84Q251 84 266 87T294 109T314 164T322 270V311H238V398H422Z" />
<glyph unicode="H" glyph-name="H" horiz-adv-x="473" d="M161 754V460H312V754H412V0H312V373H161V0H61V754H161Z" />
<glyph unicode="I" glyph-name="I" horiz-adv-x="222" d="M161 0H61V754H161V0Z" />
<glyph unicode="J" glyph-name="J" horiz-adv-x="303" d="M242 187Q242 147 238 111T218 48T173 6T94 -10Q73 -10 50 -6T8 10V112Q23 103 39 95T74 86Q99 86 113 95T133 120T141 154T142 192V754H242V187Z" />
<glyph unicode="K" glyph-name="K" horiz-adv-x="424" d="M163 754V392L304 754H407L259 389L419 0H304L163 382V0H61V754H163Z" />
<glyph unicode="L" glyph-name="L" horiz-adv-x="331" d="M161 754V87H329V0H61V754H161Z" />
<glyph unicode="M" glyph-name="M" horiz-adv-x="561" d="M172 754L279 210H281L284 241L314 422L379 754H467L537 0H439L421 281L415 421L413 520H411L394 412L316 0H247L150 520H148L119 0H24L86 754H172Z" />
<glyph unicode="N" glyph-name="N" horiz-adv-x="472" d="M146 530L161 277V0H61V754H157L333 181L335 183L311 485V754H411V0H318L142 581L140 579L146 530Z" />
<glyph unicode="O" glyph-name="O" horiz-adv-x="476" d="M238 670Q208 670 191 647T164 584T151 491T148 377Q148 317 151 264T163 171T190 108T238 84Q268 84 285 107T312 170T325 263T328 377Q328 437 325 490T313 583T286 646T238 670ZM238 764Q287 764 320
745T375 694T409 622T426 538T433 453T434 377Q434 343 433 301T427 216T409 133T375 60T320 9T238 -10Q190 -10 157 9T101 60T67 132T50 216T43 301T42 377Q42 411 43 453T49 538T67 621T101 694T156 745T238 764Z" />
<glyph unicode="P" glyph-name="P" horiz-adv-x="388" d="M161 669V419Q225 414 248 447T271 544Q271 569 267 592T252 632T222 659T175 669H161ZM61 0V754H181Q213 754 248 750T311 726T358 666T377 552Q377 437 328 383T161 334V0H61Z" />
<glyph unicode="Q" glyph-name="Q" horiz-adv-x="479" d="M238 670Q208 670 191 647T164 584T151 491T148 377Q148 317 151 264T163 171T190 108T238 84Q264 84 279 100L216 191L277 239L315 185H317Q322 231 325 279T328 377Q328 437 325 490T313 583T286 646T238
670ZM392 -58L339 21Q318 4 293 -3T238 -10Q190 -10 157 9T101 60T67 132T50 216T43 301T42 377Q42 411 43 453T49 538T67 621T101 694T156 745T238 764Q287 764 320 745T375 694T409 622T426 538T433 453T434 377Q434 345 433 307T427 229T413 152T389 82L457
-12L392 -58Z" />
<glyph unicode="R" glyph-name="R" horiz-adv-x="416" d="M161 420Q217 416 239 449T262 539Q262 566 260 590T248 632T222 660T177 669H161V420V420ZM61 754H181Q208 754 241 751T302 729T349 671T368 561Q368 534 364 503T347 443T315 394T264 367L403 0H299L163
369H161V0H61V754Z" />
<glyph unicode="S" glyph-name="S" horiz-adv-x="354" d="M293 638Q273 652 254 661T208 670Q166 670 143 641T119 573Q119 548 125 530T147 491L223 408Q248 382 268 359T302 310T323 255T330 187Q330 147 318 112T283 49T228 6T153 -10Q124 -10 95 -2T43 26V127Q66
110 89 99T142 88Q188 88 209 119T230 193Q230 231 215 259T176 313T125 364T74 418T35 484T19 571Q19 611 29 646T61 707T114 748T188 764Q217 764 243 759T294 739L293 638Z" />
<glyph unicode="T" glyph-name="T" horiz-adv-x="323" d="M327 754V667H214V0H114V667H-4V754H327Z" />
<glyph unicode="U" glyph-name="U" horiz-adv-x="467" d="M161 754V201Q161 165 166 142T180 106T203 89T231 84Q257 84 272 92T294 114T304 147T307 190V754H407V219Q407 182 405 142T386 68T335 12T234 -10Q174 -10 140 9T88 61T66 138T61 234V754H161Z" />
<glyph unicode="V" glyph-name="V" horiz-adv-x="387" d="M107 754L193 187H195L200 234L240 488L286 754H381L233 0H153L7 754H107Z" />
<glyph unicode="W" glyph-name="W" horiz-adv-x="592" d="M100 754L171 243L175 187H177L207 440L259 754H337L419 192H421L448 434L494 754H591L459 0H379L322 351L299 541L298 560H296L274 357L214 0H132L2 754H100Z" />
<glyph unicode="X" glyph-name="X" horiz-adv-x="427" d="M132 754L180 620Q192 586 203 552T220 482H222L249 586L302 754H404L265 383L404 0H302L256 132Q243 169 232 206T215 282H213Q212 259 207 238T194 195L132 0H24L167 383L33 754H132Z" />
<glyph unicode="Y" glyph-name="Y" horiz-adv-x="392" d="M110 754L202 405H204L220 502L284 754H391L251 325V0H151V325L2 754H110Z" />
<glyph unicode="Z" glyph-name="Z" horiz-adv-x="393" d="M375 754L148 87H363V0H15L244 667H42V754H375Z" />
<glyph unicode="[" glyph-name="bracketleft" horiz-adv-x="300" d="M257 754V686H124V-35H257V-103H38V754H257Z" />
<glyph unicode="\" glyph-name="backslash" horiz-adv-x="250" d="M-29 830L358 -103H277L-108 830H-29Z" />
<glyph unicode="]" glyph-name="bracketright" horiz-adv-x="300" d="M262 754V-103H43V-35H176V686H43V754H262Z" />
<glyph unicode="^" glyph-name="asciicircum" horiz-adv-x="500" d="M274 754L457 337H390L249 661L110 337H44L225 754H274Z" />
<glyph unicode="_" glyph-name="underscore" horiz-adv-x="500" d="M500 -75V-125H0V-75H500Z" />
<glyph unicode="`" glyph-name="grave" horiz-adv-x="280" d="M133 746L215 597L165 568L66 703L133 746Z" />
<glyph unicode="a" glyph-name="a" horiz-adv-x="380" d="M187 76Q211 76 223 98T240 149T245 208T246 253Q246 268 246 297T240 356T223 407T187 429Q161 429 148 408T130 357T125 297Q125 268 125 253Q125 237 125 207Q125 178 130 149T148 98T187 76ZM243 65H241Q227
32 208 12T148 -8Q119 -8 99 6T65 43T45 95T34 153T30 210T29 259Q29 280 30 307T34 362T45 417T66 466T100 500T151 513Q184 513 206 495T241 449H243V505H337V0H243V65Z" />
<glyph unicode="b" glyph-name="b" horiz-adv-x="380" d="M193 76Q219 76 232 98T250 149T255 208Q255 238 255 253Q255 268 255 297Q255 327 250 356T232 407T193 429Q169 429 157 407T140 356T135 298T134 253Q134 238 134 209T140 150T157 99T193 76ZM43 830H137V449H139Q153
478 173 495T229 513Q259 513 279 500T313 466T334 418T345 362T350 307T351 259Q351 239 351 211T347 154T336 95T315 43T282 6T232 -8Q212 -8 198 -3T173 12T154 35T139 65H137V0H43V830Z" />
<glyph unicode="c" glyph-name="c" horiz-adv-x="278" d="M254 401H252Q237 424 208 425Q178 425 161 406T136 361T127 306T125 257Q125 238 126 208T136 150T160 101T206 80Q222 80 232 85T254 99V12Q220 -8 178 -8Q128 -8 99 18T54 82T34 165T29 248Q29 287
33 333T52 419T97 486T179 513Q219 513 254 496V401Z" />
<glyph unicode="d" glyph-name="d" horiz-adv-x="380" d="M187 76Q211 76 223 98T240 149T245 208T246 253Q246 268 246 297T240 356T223 407T187 429Q161 429 148 408T130 357T125 297Q125 268 125 253Q125 237 125 207Q125 178 130 149T148 98T187 76ZM243 65H241Q227
32 208 12T148 -8Q119 -8 99 6T65 43T45 95T34 153T30 210T29 259Q29 280 30 307T34 362T45 417T66 466T100 500T151 513Q187 513 207 496T241 449H243V830H337V0H243V65Z" />
<glyph unicode="e" glyph-name="e" horiz-adv-x="361" d="M237 301Q237 316 236 337T230 379T213 414T180 429Q158 429 147 415T131 380T126 338T125 301H237ZM125 234Q125 218 125 192T131 140T149 95T184 76Q203 76 214 85T232 108T241 138T243 170H330Q330
135 322 103T297 46T251 7T183 -8Q130 -8 100 17T53 80T33 164T29 249Q29 275 30 304T37 363T52 420T79 467T120 500T180 513Q231 513 261 487T308 420T328 334T333 249V234H125Z" />
<glyph unicode="f" glyph-name="f" horiz-adv-x="249" d="M68 505V668Q68 700 71 730T85 785T119 823T182 838Q200 838 214 835T245 824V726Q235 731 226 734T206 738Q188 738 179 730T166 710T162 684Q162 670 162 657V505H240V431H162V0H68V431H21V505H68Z" />
<glyph unicode="g" glyph-name="g" horiz-adv-x="382" d="M245 250Q245 265 244 295T238 355T220 407T184 429Q160 429 148 407T130 356T125 297Q125 268 125 255Q125 241 125 211Q125 181 130 151T148 99T187 76Q212 76 224 97T241 147T246 205T245 250ZM339
-4Q339 -72 329 -113T300 -177T251 -207T185 -215Q116 -215 76 -178T36 -69V-55H127Q126 -69 129 -82T139 -106T157 -124T187 -131Q211 -131 222 -121T239 -95T244 -60Q244 -41 244 -24V60H242Q232 29 210 10T152 -8Q107 -8 82 20T46 88T32 172T29 249Q29 269 29
296T33 353T43 411T64 462T98 499T150 513Q188 513 207 494T242 445L244 447V505H339V-4Z" />
<glyph unicode="h" glyph-name="h" horiz-adv-x="388" d="M138 830V447H140Q156 478 180 495T242 513Q280 513 301 498T331 459T343 406T345 347V0H251V349Q251 362 250 376T242 402T225 421T195 429Q172 429 160 417T143 388T138 351Q138 331 138 315V0H44V830H138Z" />
<glyph unicode="i" glyph-name="i" horiz-adv-x="180" d="M91 595Q65 595 47 613T28 658Q28 684 46 702T91 720Q116 720 134 702T153 658Q153 632 135 614T91 595ZM137 0H43V505H137V0Z" />
<glyph unicode="j" glyph-name="j" horiz-adv-x="180" d="M91 595Q65 595 47 613T28 658Q28 684 46 702T91 720Q116 719 134 701T153 657Q153 631 135 613T91 595ZM137 -207H43V505H137V-207Z" />
<glyph unicode="k" glyph-name="k" horiz-adv-x="395" d="M138 830V281H140L257 505H362L233 281L379 0H270L140 268H138V0H44V830H138Z" />
<glyph unicode="l" glyph-name="l" horiz-adv-x="180" d="M137 0H43V830H137V0Z" />
<glyph unicode="m" glyph-name="m" horiz-adv-x="590" d="M138 443H140Q154 475 178 494T239 513Q273 513 297 495T330 443H332Q347 476 372 494T436 513Q469 513 490 504T524 478T542 439T547 391V0H453V354Q453 368 452 381T445 405T429 422T402 429Q377 429
365 419T347 392T342 357Q342 338 342 321V0H248V343Q248 358 247 373T241 401T225 421T194 429Q172 429 161 418T144 391T139 356T137 321V0H43V505H138V443Z" />
<glyph unicode="n" glyph-name="n" horiz-adv-x="388" d="M138 447H140Q156 478 180 495T242 513Q279 513 300 498T331 459T343 406T345 347V0H251V349Q251 362 250 376T242 402T225 421T195 429Q172 429 160 417T143 388T138 351Q138 331 138 315V0H44V505H138V447Z" />
<glyph unicode="o" glyph-name="o" horiz-adv-x="375" d="M188 78Q215 78 228 100T246 151T252 208T251 251Q251 266 251 295T247 354T228 405T188 427Q161 427 148 405T130 354T124 296T125 251Q125 237 125 209T129 151T148 100T188 78ZM188 -8Q134 -8 103 17T55
81T34 165T29 251Q29 292 33 338T54 423T102 487T188 513Q242 513 273 488T321 423T342 338T347 251Q347 211 343 166T322 82T274 18T188 -8Z" />
<glyph unicode="p" glyph-name="p" horiz-adv-x="380" d="M193 76Q215 76 227 91T246 132T253 189T255 252Q255 267 255 297Q255 327 250 356T232 407T193 429Q169 429 157 407T140 356T135 297T134 252Q134 237 134 208T140 149T157 98T193 76ZM137 440H139Q153
472 173 492T232 513Q261 513 281 499T315 463T335 411T346 353T350 295T351 247Q351 215 349 171T335 88T299 20T229 -8Q192 -8 173 9T139 57H137V-207H43V505H137V440Z" />
<glyph unicode="q" glyph-name="q" horiz-adv-x="380" d="M187 76Q211 76 223 98T240 149T245 207T246 252Q246 267 246 297T240 356T223 407T187 429Q161 429 148 407T130 356T125 297Q125 268 125 252Q125 237 125 207Q125 178 130 149T148 98T187 76ZM337 -207H243V57H241Q227
26 208 9T151 -8Q106 -8 82 20T46 87T32 171T29 247Q29 267 29 295T33 352T44 411T65 462T98 499T148 513Q187 513 207 493T241 440H243V505H337V-207Z" />
<glyph unicode="r" glyph-name="r" horiz-adv-x="269" d="M138 443H140Q157 476 182 494T247 513V420L231 421Q178 421 159 394T139 318V0H44V505H138V443Z" />
<glyph unicode="s" glyph-name="s" horiz-adv-x="276" d="M234 402Q220 414 201 421T164 429Q138 429 119 415T100 375Q101 354 112 339T141 309T179 281T217 248T246 204T258 142Q258 75 220 34T113 -8Q88 -8 70 -3T31 16V108Q49 94 67 85T109 76Q140 76 156
93T172 140Q172 162 161 178T131 209T93 238T55 271T26 315T14 375Q14 405 24 430T51 474T94 502T149 513Q173 513 193 508T234 491V402Z" />
<glyph unicode="t" glyph-name="t" horiz-adv-x="221" d="M157 648V505H207V431H157V0H63V431H12V505H63V648H157Z" />
<glyph unicode="u" glyph-name="u" horiz-adv-x="389" d="M138 505V189Q138 172 138 152Q138 133 143 117T160 89T196 78Q220 78 231 88T247 114T252 148Q252 167 252 184V505H346V164Q346 125 340 93T317 39T272 4T200 -8Q149 -8 118 6T71 45T49 105T44 184V505H138Z" />
<glyph unicode="v" glyph-name="v" horiz-adv-x="358" d="M113 505L181 123H183L186 153L223 357L254 505H345L212 0H150L13 505H113Z" />
<glyph unicode="w" glyph-name="w" horiz-adv-x="487" d="M96 505L150 153V143H152L174 300L213 505H280L337 153V143H339L365 331L398 505H490L371 0H307L256 259L246 371H244L222 190L185 0H120L-3 505H96Z" />
<glyph unicode="x" glyph-name="x" horiz-adv-x="395" d="M124 505L195 332L219 407L260 505H358L244 267L382 0H271L221 109Q211 132 202 156T188 205H186Q184 176 174 149T152 94L112 0H14L140 267L14 505H124Z" />
<glyph unicode="y" glyph-name="y" horiz-adv-x="373" d="M109 505L183 153H185L270 505H365L159 -207H60L138 41L4 505H109Z" />
<glyph unicode="z" glyph-name="z" horiz-adv-x="335" d="M321 505L152 84H312V0H14L189 421H27V505H321Z" />
<glyph unicode="{" glyph-name="braceleft" horiz-adv-x="258" d="M2 353Q18 355 33 359T62 372T83 396T92 434V622Q92 661 101 686T128 727T170 748T224 754H255V697Q212 693 193 675T176 610V451Q176 427 173 407T159 372T130 345T82 328V326Q111 320 129 309T158
283T172 247T176 203V44Q174 -3 193 -21T255 -43V-100H224Q195 -100 171 -94T129 -73T102 -33T92 32V220Q91 243 83 258T62 282T34 295T2 301V353Z" />
<glyph unicode="|" glyph-name="bar" horiz-adv-x="250" d="M160 786V-214H90V786H160Z" />
<glyph unicode="}" glyph-name="braceright" horiz-adv-x="258" d="M3 -43Q46 -39 65 -21T82 44V203Q82 227 85 247T99 282T128 309T176 326V328Q147 334 129 345T100 371T86 407T82 451V610Q84 657 65 675T3 697V754H34Q63 754 87 748T129 727T156 687T166 622V434Q167
411 175 396T196 372T224 359T256 353V301Q240 299 225 295T196 282T175 258T166 220V32Q166 -7 157 -32T130 -73T88 -94T34 -100H3V-43Z" />
<glyph unicode="~" glyph-name="asciitilde" horiz-adv-x="500" d="M161 331Q183 331 208 321T257 296Q282 283 304 272T342 261Q356 261 368 269T390 289T409 315T423 344L457 297Q448 277 437 257T411 221T379 196T341 186Q330 186 315 191T285 203T255 217T230
230Q214 238 197 246T161 255Q145 255 133 247T110 225T93 196T78 165L44 213Q53 234 64 255T90 293T121 320T161 331Z" />
</font>
</defs>
</svg>
